<?xml version="1.0" encoding="UTF-8" standalone="no"?>
<!-- Generator: Adobe Illustrator 15.0.0, SVG Export Plug-In . SVG Version: 6.00 Build 0)  -->

<svg
   xmlns:dc="http://purl.org/dc/elements/1.1/"
   xmlns:cc="http://creativecommons.org/ns#"
   xmlns:rdf="http://www.w3.org/1999/02/22-rdf-syntax-ns#"
   xmlns:svg="http://www.w3.org/2000/svg"
   xmlns="http://www.w3.org/2000/svg"
   xmlns:sodipodi="http://sodipodi.sourceforge.net/DTD/sodipodi-0.dtd"
   xmlns:inkscape="http://www.inkscape.org/namespaces/inkscape"
   version="1.1"
   x="0px"
   y="0px"
   width="2500"
   height="350"
   viewBox="123.445 0 0 599.99999"
   enable-background="new 123.445 0 596 595.281"
   xml:space="preserve"
   id="svg2"
   inkscape:version="0.91 r13725"
   sodipodi:docname="btn_google_signin.svg"
   inkscape:export-filename="/home/evgenii/develop/veg/cvp_mobile.hg/android/cnvrclient2/images/btn_google_signin.svg.png"
   inkscape:export-xdpi="9"
   inkscape:export-ydpi="9"><metadata
     id="metadata18"><rdf:RDF><cc:Work
         rdf:about=""><dc:format>image/svg+xml</dc:format><dc:type
           rdf:resource="http://purl.org/dc/dcmitype/StillImage" /><dc:title /></cc:Work></rdf:RDF></metadata><defs
     id="defs16"><clipPath
       id="clipPath4158"
       clipPathUnits="userSpaceOnUse"><path
         style="clip-rule:evenodd"
         inkscape:connector-curvature="0"
         id="path4160"
         d="M 49.9727,430 C 38.9414,430 30,421.086 30,410.027 L 30,49.9727 C 30,38.9414 38.9141,30 49.9727,30 L 410.027,30 C 421.059,30 430,38.9141 430,49.9727 l 0,360.0543 C 430,421.059 421.086,430 410.027,430 l -360.0543,0 z" /></clipPath><clipPath
       id="clipPath4164"
       clipPathUnits="userSpaceOnUse"><path
         inkscape:connector-curvature="0"
         id="path4166"
         d="M 0,0 460,0 460,460 0,460 0,0 Z" /></clipPath><clipPath
       id="clipPath4174"
       clipPathUnits="userSpaceOnUse"><path
         style="clip-rule:evenodd"
         inkscape:connector-curvature="0"
         id="path4176"
         d="m 316.398,227.953 c 0,6.383 -0.57,12.52 -1.636,18.41 l -84.762,0 0,-34.812 48.438,0 c -2.086,-11.25 -8.43,-20.781 -17.961,-27.164 l 0,-22.582 29.086,0 c 17.019,15.668 26.835,38.742 26.835,66.148 l 0,0 z" /></clipPath><clipPath
       id="clipPath4180"
       clipPathUnits="userSpaceOnUse"><path
         inkscape:connector-curvature="0"
         id="path4182"
         d="M 0,0 460,0 460,460 0,460 0,0 Z" /></clipPath><clipPath
       id="clipPath4190"
       clipPathUnits="userSpaceOnUse"><path
         style="clip-rule:evenodd"
         inkscape:connector-curvature="0"
         id="path4192"
         d="m 230,140 c 24.301,0 44.672,8.059 59.563,21.805 l -29.086,22.582 c -8.059,-5.399 -18.368,-8.59 -30.477,-8.59 -23.441,0 -43.281,15.832 -50.359,37.101 l -30.067,0 0,-23.316 C 164.383,160.168 194.816,140 230,140 l 0,0 z" /></clipPath><clipPath
       id="clipPath4196"
       clipPathUnits="userSpaceOnUse"><path
         inkscape:connector-curvature="0"
         id="path4198"
         d="M 0,0 460,0 460,460 0,460 0,0 Z" /></clipPath><clipPath
       id="clipPath4206"
       clipPathUnits="userSpaceOnUse"><path
         style="clip-rule:evenodd"
         inkscape:connector-curvature="0"
         id="path4208"
         d="m 179.641,212.898 c -1.801,5.403 -2.825,11.168 -2.825,17.102 0,5.934 1.024,11.699 2.825,17.102 l 0,23.316 -30.067,0 C 143.477,258.27 140,244.523 140,230 c 0,-14.523 3.477,-28.27 9.574,-40.418 l 30.067,23.316 0,0 z" /></clipPath><clipPath
       id="clipPath4212"
       clipPathUnits="userSpaceOnUse"><path
         inkscape:connector-curvature="0"
         id="path4214"
         d="M 0,0 460,0 460,460 0,460 0,0 Z" /></clipPath><clipPath
       id="clipPath4222"
       clipPathUnits="userSpaceOnUse"><path
         style="clip-rule:evenodd"
         inkscape:connector-curvature="0"
         id="path4224"
         d="m 230,284.203 c 13.215,0 25.078,-4.539 34.406,-13.457 l 25.813,25.813 C 274.633,311.082 254.258,320 230,320 c -35.184,0 -65.617,-20.168 -80.426,-49.582 l 30.067,-23.316 c 7.078,21.269 26.918,37.101 50.359,37.101 l 0,0 z" /></clipPath><clipPath
       id="clipPath4228"
       clipPathUnits="userSpaceOnUse"><path
         inkscape:connector-curvature="0"
         id="path4230"
         d="M 0,0 460,0 460,460 0,460 0,0 Z" /></clipPath></defs><sodipodi:namedview
     pagecolor="#000000"
     bordercolor="#666666"
     borderopacity="1"
     objecttolerance="10"
     gridtolerance="10"
     guidetolerance="10"
     inkscape:pageopacity="0"
     inkscape:pageshadow="2"
     inkscape:window-width="1732"
     inkscape:window-height="845"
     id="namedview14"
     showgrid="false"
     inkscape:zoom="0.1198"
     inkscape:cx="-1522.4718"
     inkscape:cy="262.37794"
     inkscape:window-x="1921"
     inkscape:window-y="74"
     inkscape:window-maximized="0"
     inkscape:current-layer="svg2" /><rect
     style="opacity:1;fill:#12658d;fill-opacity:1;fill-rule:nonzero;stroke:#ffffff;stroke-width:10.09103107;stroke-linecap:butt;stroke-linejoin:round;stroke-miterlimit:4;stroke-dasharray:none;stroke-dashoffset:0;stroke-opacity:1"
     id="rect4371-3"
     width="2489.9089"
     height="339.90897"
     x="5.0455155"
     y="5.0455184"
     ry="51.180519"
     rx="37.641239" /><rect
     style="opacity:1;fill:#eeeeee;fill-opacity:1;fill-rule:nonzero;stroke:#ffffff;stroke-width:10.14616585;stroke-linecap:butt;stroke-linejoin:round;stroke-miterlimit:4;stroke-dasharray:none;stroke-dashoffset:0;stroke-opacity:1"
     id="rect4371"
     width="339.85382"
     height="339.85382"
     x="5.0730829"
     y="5.0730777"
     ry="51.172218"
     rx="48.94986" /><g
     id="g4172"
     clip-path="url(#clipPath4174)"
     transform="matrix(0.87076189,0,0,-0.8571557,-25.580967,374.01008)"><g
       id="g4178"
       clip-path="url(#clipPath4180)"><path
         d="m 180,111.805 186.398,0 0,184.559 -186.398,0 0,-184.559 z"
         style="fill:#3f84f6;fill-opacity:1;fill-rule:nonzero;stroke:none"
         id="path4184"
         inkscape:connector-curvature="0" /></g></g><g
     id="g4188"
     clip-path="url(#clipPath4190)"
     transform="matrix(0.87076189,0,0,-0.8571557,-25.580967,374.01008)"><g
       id="g4194"
       clip-path="url(#clipPath4196)"><path
         d="m 99.5742,90 239.988,0 0,172.898 -239.988,0 0,-172.898 z"
         style="fill:#36a850;fill-opacity:1;fill-rule:nonzero;stroke:none"
         id="path4200"
         inkscape:connector-curvature="0" /></g></g><g
     id="g4204"
     clip-path="url(#clipPath4206)"
     transform="matrix(0.87076189,0,0,-0.8571557,-25.580967,374.01008)"><g
       id="g4210"
       clip-path="url(#clipPath4212)"><path
         d="m 90,139.582 139.641,0 0,180.836 -139.641,0 0,-180.836 z"
         style="fill:#fcbc00;fill-opacity:1;fill-rule:nonzero;stroke:none"
         id="path4216"
         inkscape:connector-curvature="0" /></g></g><g
     id="g4220"
     clip-path="url(#clipPath4222)"
     transform="matrix(0.87076189,0,0,-0.8571557,-25.580967,374.01008)"><g
       id="g4226"
       clip-path="url(#clipPath4228)"><path
         d="m 99.5742,197.102 240.645,0 0,172.898 -240.645,0 0,-172.898 z"
         style="fill:#eb4233;fill-opacity:1;fill-rule:nonzero;stroke:none"
         id="path4232"
         inkscape:connector-curvature="0" /></g></g><text
     xml:space="preserve"
     style="font-style:normal;font-variant:normal;font-weight:normal;font-stretch:normal;font-size:156.25px;line-height:125%;font-family:sans-serif;-inkscape-font-specification:sans-serif;letter-spacing:0px;word-spacing:0px;fill:#000000;fill-opacity:1;stroke:none;stroke-width:1px;stroke-linecap:butt;stroke-linejoin:miter;stroke-opacity:1"
     x="687.53766"
     y="224.28496"
     id="text4438"
     sodipodi:linespacing="125%"><tspan
       sodipodi:role="line"
       id="tspan4440"
       x="687.53766"
       y="224.28496"
       style="font-style:normal;font-variant:normal;font-weight:bold;font-stretch:normal;font-size:137.5px;font-family:sans-serif;-inkscape-font-specification:'sans-serif Bold';fill:#ffffff;fill-opacity:1">Sign in with Google</tspan></text>
</svg>