<?xml version="1.0" encoding="UTF-8" standalone="no"?>
<!-- Generator: Adobe Illustrator 15.0.0, SVG Export Plug-In . SVG Version: 6.00 Build 0)  -->

<svg
   xmlns:dc="http://purl.org/dc/elements/1.1/"
   xmlns:cc="http://creativecommons.org/ns#"
   xmlns:rdf="http://www.w3.org/1999/02/22-rdf-syntax-ns#"
   xmlns:svg="http://www.w3.org/2000/svg"
   xmlns="http://www.w3.org/2000/svg"
   xmlns:sodipodi="http://sodipodi.sourceforge.net/DTD/sodipodi-0.dtd"
   xmlns:inkscape="http://www.inkscape.org/namespaces/inkscape"
   version="1.1"
   x="0px"
   y="0px"
   width="600"
   height="600"
   viewBox="123.445 0 600 599.99999"
   enable-background="new 123.445 0 596 595.281"
   xml:space="preserve"
   id="svg2"
   inkscape:version="0.91 r13725"
   sodipodi:docname="gplusicon.svg"><metadata
     id="metadata18"><rdf:RDF><cc:Work
         rdf:about=""><dc:format>image/svg+xml</dc:format><dc:type
           rdf:resource="http://purl.org/dc/dcmitype/StillImage" /><dc:title></dc:title></cc:Work></rdf:RDF></metadata><defs
     id="defs16" /><sodipodi:namedview
     pagecolor="#ffffff"
     bordercolor="#666666"
     borderopacity="1"
     objecttolerance="10"
     gridtolerance="10"
     guidetolerance="10"
     inkscape:pageopacity="0"
     inkscape:pageshadow="2"
     inkscape:window-width="1470"
     inkscape:window-height="845"
     id="namedview14"
     showgrid="false"
     inkscape:zoom="0.79290284"
     inkscape:cx="93.171515"
     inkscape:cy="295.43502"
     inkscape:window-x="65"
     inkscape:window-y="24"
     inkscape:window-maximized="0"
     inkscape:current-layer="svg2" /><circle
     style="fill:#0d6e99;fill-opacity:1"
     id="circle5"
     cy="300"
     cx="423.44501"
     r="300" /><g
     id="Icon"
     transform="translate(0,4.7189941)"><g
       id="g8"><path
         d="m 435.603,325.237 c -6.896,-2.964 -13.741,-4.601 -20.562,-4.898 -4.75,-0.149 -12.786,-0.596 -24.121,-1.327 -11.348,-0.744 -20.265,-1.19 -26.788,-1.327 -6.077,-0.148 -11.968,-0.372 -17.672,-0.682 -5.705,-0.285 -10.716,-1.029 -15.007,-2.22 -4.452,-1.042 -8.234,-3.002 -11.347,-5.903 -3.113,-2.878 -4.663,-7.069 -4.663,-12.563 0,-5.332 1.848,-9.562 5.556,-12.662 3.708,-3.1 7.255,-5.258 10.665,-6.449 l 26.899,0 c 20.748,0 38.941,-6.672 54.58,-20.004 15.638,-13.344 23.451,-29.64 23.451,-48.912 0,-7.403 -1.327,-14.969 -3.993,-22.683 -2.666,-7.701 -6.747,-14.745 -12.229,-21.12 l 0,-1.326 51.579,0 0,-21.344 -76.481,0 c -6.82,-2.071 -13.53,-3.782 -20.128,-5.109 -6.598,-1.327 -13.232,-2.009 -19.892,-2.009 -24.159,0 -43.989,6.672 -59.467,20.016 -15.489,13.345 -23.24,30.385 -23.24,51.133 0,13.79 3.919,25.906 11.781,36.349 7.851,10.455 18.888,19.012 33.125,25.685 l 0,3.336 c -11.261,4.737 -19.669,10.417 -25.237,17.003 -5.556,6.598 -8.334,13.815 -8.334,21.678 0,6.226 1.19,11.447 3.56,15.676 2.368,4.229 5.481,7.899 9.338,11.013 3.411,2.666 7.479,4.998 12.229,6.994 4.737,1.997 9.339,3.671 13.778,4.998 l 0,3.113 c -18.379,0.756 -33.497,5.481 -45.353,14.225 -11.856,8.743 -17.784,20.674 -17.784,35.804 0,18.677 8.234,32.852 24.679,42.574 16.445,9.724 41.273,14.572 74.473,14.572 20.301,0 37.354,-1.935 51.144,-5.791 13.791,-3.857 25.635,-9.265 35.568,-16.234 9.339,-6.82 16.296,-14.857 20.909,-24.121 4.589,-9.264 6.896,-19.148 6.896,-29.677 0,-10.529 -1.712,-19.347 -5.109,-26.466 -3.41,-7.105 -8.086,-13.48 -14.014,-19.123 -5.631,-5.175 -11.894,-9.255 -18.789,-12.219 z m -51.578,-78.812 c -6.896,10.306 -16.718,15.452 -29.454,15.452 -11.409,0 -20.711,-5.184 -27.903,-15.564 -7.193,-10.367 -10.777,-23.786 -10.777,-40.243 0,-7.255 0.632,-14.336 1.885,-21.231 1.253,-6.895 3.361,-12.786 6.337,-17.673 3.113,-5.332 7.156,-9.449 12.117,-12.339 4.96,-2.89 10.926,-4.341 17.896,-4.341 12.736,0 22.633,5.159 29.677,15.452 7.032,10.306 10.566,24.121 10.566,41.459 -0.002,15.712 -3.449,28.722 -10.344,39.028 z m 34.24,182.974 c -12.525,8.383 -29.689,12.562 -51.467,12.562 -12.6,0 -23.265,-1.228 -32.021,-3.658 -8.743,-2.443 -15.713,-5.594 -20.896,-9.463 -5.482,-3.993 -9.339,-8.371 -11.559,-13.121 -2.22,-4.737 -3.336,-9.698 -3.336,-14.895 0,-11.558 3.373,-20.995 10.119,-28.337 6.734,-7.342 18.119,-12.576 34.13,-15.688 17.04,0 32.021,0.372 44.906,1.116 12.897,0.756 21.417,1.414 25.572,1.996 7.85,1.923 13.704,5.557 17.573,10.901 3.856,5.345 5.779,12.142 5.779,20.45 -0.024,17.041 -6.274,29.766 -18.8,38.137 z"
         id="path10"
         inkscape:connector-curvature="0"
         style="fill:#ffffff" /><path
         d="m 521.807,207.222 0,43.468 16.966,0 0,-43.468 43.269,0 0,-16.68 -43.269,0 0,-43.567 -16.966,0 0,43.567 -43.27,0 0,16.68 43.27,0 z"
         id="path12"
         inkscape:connector-curvature="0"
         style="fill:#ffffff" /></g></g><circle
     style="opacity:1;fill:none;fill-opacity:1;fill-rule:nonzero;stroke:#ffffff;stroke-width:25.26795578;stroke-linecap:butt;stroke-linejoin:round;stroke-miterlimit:4;stroke-dasharray:none;stroke-dashoffset:0;stroke-opacity:1"
     id="path4157"
     cy="300"
     cx="423.44501"
     r="287.36603" /></svg>