<?xml version="1.0" encoding="UTF-8" standalone="no"?>
<!-- Generator: Adobe Illustrator 17.0.0, SVG Export Plug-In . SVG Version: 6.00 Build 0)  -->

<svg
   xmlns:dc="http://purl.org/dc/elements/1.1/"
   xmlns:cc="http://creativecommons.org/ns#"
   xmlns:rdf="http://www.w3.org/1999/02/22-rdf-syntax-ns#"
   xmlns:svg="http://www.w3.org/2000/svg"
   xmlns="http://www.w3.org/2000/svg"
   xmlns:sodipodi="http://sodipodi.sourceforge.net/DTD/sodipodi-0.dtd"
   xmlns:inkscape="http://www.inkscape.org/namespaces/inkscape"
   version="1.1"
   id="Layer_1"
   x="0px"
   y="0px"
   width="36px"
   height="36px"
   viewBox="0 0 36 36"
   style="enable-background:new 0 0 36 36;"
   xml:space="preserve"
   inkscape:version="0.91 r13725"
   sodipodi:docname="settings_mobile_inactive_white_36x36.svg"><metadata
     id="metadata9"><rdf:RDF><cc:Work
         rdf:about=""><dc:format>image/svg+xml</dc:format><dc:type
           rdf:resource="http://purl.org/dc/dcmitype/StillImage" /><dc:title /></cc:Work></rdf:RDF></metadata><defs
     id="defs7" /><sodipodi:namedview
     pagecolor="#ff02ff"
     bordercolor="#666666"
     borderopacity="1"
     objecttolerance="10"
     gridtolerance="10"
     guidetolerance="10"
     inkscape:pageopacity="0"
     inkscape:pageshadow="2"
     inkscape:window-width="1668"
     inkscape:window-height="879"
     id="namedview5"
     showgrid="false"
     inkscape:zoom="11.166395"
     inkscape:cx="5.3768729"
     inkscape:cy="7.7272595"
     inkscape:window-x="75"
     inkscape:window-y="24"
     inkscape:window-maximized="0"
     inkscape:current-layer="Layer_1" /><ellipse
     ry="14.769231"
     rx="14.76923"
     cy="18"
     cx="18"
     id="path4146-4"
     style="opacity:1;fill:#00bffe;fill-opacity:1;fill-rule:nonzero;stroke:#ffffff;stroke-width:2.46153831;stroke-linecap:round;stroke-linejoin:round;stroke-miterlimit:4;stroke-dasharray:none;stroke-opacity:1" /><path
     style="clip-rule:evenodd;fill:#ffffff;fill-rule:evenodd"
     d="m 17.999999,11.093081 c 3.809648,0 6.906921,3.097273 6.906921,6.90692 0,3.809648 -3.097273,6.906922 -6.906921,6.906922 -3.809646,0 -6.906919,-3.097274 -6.906919,-6.906922 0,-3.809648 3.097273,-6.906921 6.906919,-6.906921 z m -0.82852,-5.0640445 c 0.580739,-0.038716 1.076303,-0.038716 1.657042,0 l 0.867236,2.5087922 c 0.55751,0.1006611 1.029844,0.2245524 1.564123,0.418132 l 2.005485,-1.7344735 c 0.526536,0.2477819 0.952412,0.503307 1.440233,0.8207776 L 24.20229,10.651718 c 0.433619,0.371673 0.774319,0.712373 1.145992,1.145992 l 2.609452,-0.503306 c 0.317471,0.487819 0.565253,0.913695 0.820778,1.440232 l -1.734473,2.005483 c 0.193579,0.53428 0.31747,1.006615 0.418132,1.564125 l 2.508792,0.867236 c 0.03872,0.580739 0.03872,1.076303 0,1.657043 l -2.508792,0.867236 c -0.100662,0.55751 -0.224553,1.029844 -0.418132,1.564124 l 1.734473,2.005484 c -0.255525,0.526538 -0.503307,0.952412 -0.820778,1.440233 l -2.609452,-0.503307 c -0.371673,0.433618 -0.712373,0.77432 -1.145992,1.145992 l 0.503308,2.609453 c -0.487821,0.317471 -0.913697,0.572995 -1.440233,0.820778 L 21.25988,27.044042 c -0.534279,0.19358 -1.006613,0.31747 -1.564123,0.418132 l -0.867236,2.508793 c -0.580739,0.03871 -1.076303,0.03871 -1.657042,0 l -0.867237,-2.508793 c -0.557509,-0.100658 -1.029844,-0.224552 -1.564123,-0.418132 l -2.005485,1.734474 c -0.526536,-0.247783 -0.952411,-0.503307 -1.440232,-0.820777 l 0.503307,-2.609453 C 11.364091,24.976613 11.02339,24.635911 10.651717,24.202293 L 8.0422644,24.7056 C 7.7247937,24.217779 7.4770118,23.791905 7.2214866,23.265367 L 8.9559601,21.259883 C 8.7623805,20.725604 8.6384896,20.25327 8.5378281,19.695759 L 6.0290362,18.828523 c -0.038715,-0.58074 -0.038715,-1.076304 0,-1.657043 l 2.5087919,-0.867236 c 0.1006614,-0.55751 0.2245524,-1.029845 0.418132,-1.564125 L 7.2214866,12.734636 c 0.2555252,-0.526537 0.5033071,-0.952412 0.8207778,-1.440232 l 2.6094526,0.503306 c 0.371673,-0.433618 0.712374,-0.774319 1.145992,-1.145992 L 11.294402,8.0422648 c 0.487821,-0.3174706 0.913696,-0.5729957 1.440232,-0.8207776 l 2.005485,1.7344735 c 0.534279,-0.1935796 1.006614,-0.3174705 1.564123,-0.418132 l 0.867237,-2.5087922 z"
     id="path3"
     inkscape:connector-curvature="0" /></svg>