<svg xmlns="http://www.w3.org/2000/svg" width="48" height="48" viewBox="0 0 48 48"><g fill="#9BA7AE"><path opacity=".8" d="M24 15.35c-1.05 0-1.9-.85-1.9-1.9V2.9c0-1.05.85-1.9 1.9-1.9s1.9.85 1.9 1.9v10.55c0 1.048-.85 1.9-1.9 1.9z"/><path opacity=".35" d="M24 47c-1.05 0-1.9-.85-1.9-1.9V34.55c0-1.048.85-1.898 1.9-1.898s1.9.85 1.9 1.9V45.1C25.9 46.15 25.05 47 24 47z"/><path d="M45.1 25.9H34.55c-1.048 0-1.898-.85-1.898-1.9s.85-1.9 1.9-1.9H45.1C46.15 22.1 47 22.95 47 24s-.85 1.9-1.9 1.9z"/><path opacity=".5" d="M13.45 25.9H2.9C1.85 25.9 1 25.05 1 24s.85-1.9 1.9-1.9h10.55c1.048 0 1.898.85 1.898 1.9s-.85 1.9-1.9 1.9z"/><path d="M33.138 20.625c-.656 0-1.294-.34-1.646-.95-.524-.908-.213-2.07.695-2.594l9.138-5.274c.908-.525 2.07-.213 2.594.695.524.91.213 2.07-.696 2.595l-9.138 5.276c-.3.173-.626.255-.948.255z"/><path opacity=".45" d="M5.727 36.45c-.656 0-1.294-.34-1.646-.95-.523-.908-.212-2.07.696-2.594l9.138-5.276c.908-.524 2.07-.213 2.594.695.524.908.213 2.07-.695 2.594l-9.138 5.275c-.3.173-.625.255-.948.255z"/><path opacity=".9" d="M29.273 16.763c-.322 0-.648-.082-.948-.255-.908-.524-1.22-1.686-.695-2.594l5.276-9.138c.524-.908 1.686-1.22 2.594-.695.91.526 1.22 1.687.695 2.595l-5.276 9.138c-.353.61-.99.95-1.647.95z"/><path opacity=".4" d="M13.448 44.173c-.323 0-.65-.082-.948-.255-.908-.525-1.22-1.686-.695-2.594l5.276-9.138c.526-.908 1.686-1.22 2.595-.695.908.525 1.22 1.687.695 2.595l-5.276 9.138c-.352.61-.99.95-1.646.95z"/><path opacity=".7" d="M18.727 16.763c-.656 0-1.295-.34-1.647-.95l-5.276-9.138c-.524-.908-.213-2.07.695-2.594.908-.523 2.068-.212 2.593.696l5.276 9.138c.523.908.212 2.07-.696 2.594-.298.173-.624.255-.947.255z"/><path opacity=".3" d="M34.552 44.173c-.656 0-1.294-.34-1.646-.95l-5.276-9.138c-.524-.908-.213-2.07.695-2.594.908-.523 2.07-.212 2.594.696l5.275 9.138c.525.908.214 2.07-.695 2.594-.3.174-.625.255-.948.255z"/><path opacity=".6" d="M14.862 20.625c-.323 0-.65-.082-.948-.255l-9.138-5.276c-.908-.524-1.22-1.686-.695-2.594.526-.908 1.687-1.22 2.595-.695l9.138 5.276c.908.525 1.22 1.687.695 2.595-.35.61-.99.95-1.646.95z"/><path opacity=".25" d="M42.272 36.45c-.322 0-.648-.082-.947-.255l-9.138-5.276c-.908-.525-1.22-1.687-.695-2.595.524-.908 1.686-1.22 2.594-.695l9.138 5.276c.908.524 1.22 1.686.695 2.594-.353.61-.99.95-1.648.95z"/></g></svg>
