<?xml version="1.0" encoding="UTF-8" standalone="no"?>
<!-- Generator: Adobe Illustrator 17.0.0, SVG Export Plug-In . SVG Version: 6.00 Build 0)  -->

<svg
   xmlns:dc="http://purl.org/dc/elements/1.1/"
   xmlns:cc="http://creativecommons.org/ns#"
   xmlns:rdf="http://www.w3.org/1999/02/22-rdf-syntax-ns#"
   xmlns:svg="http://www.w3.org/2000/svg"
   xmlns="http://www.w3.org/2000/svg"
   xmlns:sodipodi="http://sodipodi.sourceforge.net/DTD/sodipodi-0.dtd"
   xmlns:inkscape="http://www.inkscape.org/namespaces/inkscape"
   version="1.1"
   id="Layer_1"
   x="0px"
   y="0px"
   width="36px"
   height="36px"
   viewBox="0 0 36 36"
   style="enable-background:new 0 0 36 36;"
   xml:space="preserve"
   inkscape:version="0.91 r13725"
   sodipodi:docname="calendar.svg"><metadata
     id="metadata11"><rdf:RDF><cc:Work
         rdf:about=""><dc:format>image/svg+xml</dc:format><dc:type
           rdf:resource="http://purl.org/dc/dcmitype/StillImage" /><dc:title></dc:title></cc:Work></rdf:RDF></metadata><defs
     id="defs9" /><sodipodi:namedview
     pagecolor="#000000"
     bordercolor="#666666"
     borderopacity="1"
     objecttolerance="10"
     gridtolerance="10"
     guidetolerance="10"
     inkscape:pageopacity="1"
     inkscape:pageshadow="2"
     inkscape:window-width="1427"
     inkscape:window-height="772"
     id="namedview7"
     showgrid="false"
     inkscape:zoom="13.111111"
     inkscape:cx="18.374709"
     inkscape:cy="15.7924"
     inkscape:window-x="75"
     inkscape:window-y="24"
     inkscape:window-maximized="0"
     inkscape:current-layer="Layer_1" /><g
     id="g3"><path
       style="fill-rule:evenodd;clip-rule:evenodd;fill:#FFFFFF;"
       d="M8.94,3.6C8.45,3.6,8.06,4,8.06,4.48v2.65   c0,0.49,0.39,0.89,0.88,0.89c0.48,0,0.88-0.4,0.88-0.89V4.48C9.82,4,9.42,3.6,8.94,3.6z M1.72,5.9C0.99,5.9,0.4,6.49,0.4,7.22v2.39   h35.2V7.22c0-0.73-0.59-1.32-1.32-1.32h-5.81v1.32c0,0.88-0.71,1.59-1.58,1.59c-0.88,0-1.59-0.71-1.59-1.59V5.9H10.52v1.32   c0,0.88-0.71,1.59-1.58,1.59c-0.88,0-1.59-0.71-1.59-1.59V5.9H1.72z M0.4,10.05v21.02c0,0.74,0.59,1.33,1.32,1.33h32.56   c0.73,0,1.32-0.59,1.32-1.33V10.05H0.4z M2.25,11.73h5.28v5.3H2.25V11.73z M8.67,11.73h5.28v5.3H8.67V11.73z M15.18,11.73h5.28v5.3   h-5.28V11.73z M21.7,11.73h5.28v5.3H21.7V11.73z M28.21,11.73h5.28v5.3h-5.28V11.73z M2.25,18.53h5.28v5.3H2.25V18.53z M8.67,18.53   h5.28v5.3H8.67V18.53z M15.18,18.53h5.28v5.3h-5.28V18.53z M21.7,18.53h5.28v5.3H21.7V18.53z M28.21,18.53h5.28v5.3h-5.28V18.53z    M2.25,25.33h5.28v5.3H2.25V25.33z M8.67,25.33h5.28v5.3H8.67V25.33z M15.18,25.33h5.28v5.3h-5.28V25.33z M21.7,25.33h5.28v5.3   H21.7V25.33z M28.21,25.33h5.28v5.3h-5.28V25.33z M26.89,3.6c-0.49,0-0.88,0.4-0.88,0.88v2.65c0,0.49,0.39,0.89,0.88,0.89   c0.48,0,0.88-0.4,0.88-0.89V4.48C27.77,4,27.37,3.6,26.89,3.6z"
       id="path5" /></g></svg>