<?xml version="1.0" encoding="UTF-8" standalone="no"?>
<svg
   xmlns:dc="http://purl.org/dc/elements/1.1/"
   xmlns:cc="http://creativecommons.org/ns#"
   xmlns:rdf="http://www.w3.org/1999/02/22-rdf-syntax-ns#"
   xmlns:svg="http://www.w3.org/2000/svg"
   xmlns="http://www.w3.org/2000/svg"
   xmlns:sodipodi="http://sodipodi.sourceforge.net/DTD/sodipodi-0.dtd"
   xmlns:inkscape="http://www.inkscape.org/namespaces/inkscape"
   version="1.1"
   id="Layer_1"
   x="0px"
   y="0px"
   width="53.417px"
   height="36px"
   viewBox="0 0 53.417 36"
   style="enable-background:new 0 0 53.417 36;"
   xml:space="preserve"
   inkscape:version="0.91 r13725"
   sodipodi:docname="power-button.off_ru.svg"><metadata
     id="metadata23"><rdf:RDF><cc:Work
         rdf:about=""><dc:format>image/svg+xml</dc:format><dc:type
           rdf:resource="http://purl.org/dc/dcmitype/StillImage" /><dc:title></dc:title></cc:Work></rdf:RDF></metadata><defs
     id="defs21" /><sodipodi:namedview
     pagecolor="#ffb2ff"
     bordercolor="#666666"
     borderopacity="1"
     objecttolerance="10"
     gridtolerance="10"
     guidetolerance="10"
     inkscape:pageopacity="1"
     inkscape:pageshadow="2"
     inkscape:window-width="1268"
     inkscape:window-height="775"
     id="namedview19"
     showgrid="false"
     inkscape:zoom="1.9657667"
     inkscape:cx="43.655291"
     inkscape:cy="97.571919"
     inkscape:window-x="315"
     inkscape:window-y="70"
     inkscape:window-maximized="0"
     inkscape:current-layer="Layer_1" /><path
     style="fill:#FFFFFF;"
     d="M47.157,33.875H7.137c-2.713,0-5.99-2.738-5.99-6.14V8.015c0-3.401,3.277-6.14,5.99-6.14h40.02c2.752,0,4.99,2.754,4.99,6.14v19.72C52.147,31.121,49.909,33.875,47.157,33.875z M7.137,2.875c-2.246,0-4.99,2.372-4.99,5.14v19.72c0,2.768,2.744,5.14,4.99,5.14h40.02c2.2,0,3.99-2.306,3.99-5.14V8.015c0-2.834-1.79-5.14-3.99-5.14H7.137z"
     id="path3" /><path
     style="fill-rule:evenodd;clip-rule:evenodd;fill:#FFFFFF;"
     d="M45.823,32c1.378,0,4.157-2.381,4.157-4.39V7.89c0-2.009-2.778-3.89-4.157-3.89H26.98v28H45.823z"
     id="path11" /><g
     id="g4229"
     transform="matrix(0.87088481,0,0,1.0046112,25.535304,-36.443908)"><path
       sodipodi:nodetypes="cccccccc"
       inkscape:connector-curvature="0"
       id="path4173"
       d="m 3.56499,46.344628 0,11.974262 2.547548,0 c 2.405072,-0.872326 2.2037,-5.641528 0.07279,-6.250302 l -2.547548,-0.06579 2.474761,-0.06579 c 1.973454,-1.842194 1.191496,-4.446515 0.041,-5.56499 z"
       style="fill:none;fill-rule:evenodd;stroke:#000000;stroke-width:1.08827281px;stroke-linecap:butt;stroke-linejoin:miter;stroke-opacity:1" /><path
       sodipodi:nodetypes="ccccc"
       inkscape:connector-curvature="0"
       id="path4175"
       d="m 9.6870101,48.955544 0.053017,9.505533 2.4201869,0.02681 c 1.554491,-1.484216 1.048483,-4.319618 -0.211988,-4.937615 l -2.1198899,-0.06858"
       style="fill:none;fill-rule:evenodd;stroke:#000000;stroke-width:1.09473801px;stroke-linecap:butt;stroke-linejoin:miter;stroke-opacity:1" /><path
       inkscape:connector-curvature="0"
       id="path4177"
       d="m 14.775417,48.845908 -0.02473,10.198341"
       style="fill:none;fill-rule:evenodd;stroke:#000000;stroke-width:1.11759901px;stroke-linecap:butt;stroke-linejoin:miter;stroke-opacity:1"
       sodipodi:nodetypes="cc" /><path
       inkscape:connector-curvature="0"
       id="path4179"
       d="m 16.697522,48.782981 0.07441,10.250114"
       style="fill:none;fill-rule:evenodd;stroke:#000000;stroke-width:1.1102953px;stroke-linecap:butt;stroke-linejoin:miter;stroke-opacity:1"
       sodipodi:nodetypes="cc" /><path
       inkscape:connector-curvature="0"
       id="path4181"
       d="m 16.697523,55.281418 3.32785,-6.357637"
       style="fill:none;fill-rule:evenodd;stroke:#000000;stroke-width:1.1102953px;stroke-linecap:butt;stroke-linejoin:miter;stroke-opacity:1"
       sodipodi:nodetypes="cc" /><path
       inkscape:connector-curvature="0"
       id="path4183"
       d="m 18.153155,52.884393 2.435654,6.14189"
       style="fill:none;fill-rule:evenodd;stroke:#000000;stroke-width:1.1102953px;stroke-linecap:butt;stroke-linejoin:miter;stroke-opacity:1"
       sodipodi:nodetypes="cc" /><path
       sodipodi:nodetypes="ccccc"
       inkscape:connector-curvature="0"
       id="path4190"
       d="m 21.390839,58.532577 c 1.123518,0.216359 1.196775,-1.3512 1.415564,-2.671566 l 0.141557,-6.478548 2.972687,0 -0.07078,9.550848"
       style="fill:none;fill-rule:evenodd;stroke:#000000;stroke-width:1.08124673px;stroke-linecap:butt;stroke-linejoin:miter;stroke-opacity:1" /></g><g
     id="g4221"
     transform="translate(24.285937,-35.972556)"><path
       sodipodi:nodetypes="cccccccc"
       inkscape:connector-curvature="0"
       id="path4173-1"
       d="m -17.732238,45.646911 0,11.974261 2.547548,0 c 2.405072,-0.872326 2.2037,-5.641527 0.07279,-6.250301 l -2.547548,-0.06579 2.474761,-0.06579 c 1.973454,-1.842194 1.191496,-4.446515 0.041,-5.56499 z"
       style="fill:none;fill-rule:evenodd;stroke:#ffffff;stroke-width:1.08827281px;stroke-linecap:butt;stroke-linejoin:miter;stroke-opacity:1" /><g
       style="stroke:#ffffff;stroke-opacity:1"
       id="g4216"><path
         sodipodi:nodetypes="cc"
         style="fill:none;fill-rule:evenodd;stroke:#ffffff;stroke-width:1.1102953px;stroke-linecap:butt;stroke-linejoin:miter;stroke-opacity:1"
         d="m -11.057513,47.730073 0.07441,10.250114"
         id="path4179-1"
         inkscape:connector-curvature="0" /><path
         sodipodi:nodetypes="cc"
         style="fill:none;fill-rule:evenodd;stroke:#ffffff;stroke-width:1.1102953px;stroke-linecap:butt;stroke-linejoin:miter;stroke-opacity:1"
         d="m -11.057512,54.22851 3.32785,-6.357637"
         id="path4181-8"
         inkscape:connector-curvature="0" /><path
         sodipodi:nodetypes="cc"
         style="fill:none;fill-rule:evenodd;stroke:#ffffff;stroke-width:1.1102953px;stroke-linecap:butt;stroke-linejoin:miter;stroke-opacity:1"
         d="m -9.6018805,51.831485 2.4356548,6.14189"
         id="path4183-3"
         inkscape:connector-curvature="0" /></g><path
       sodipodi:nodetypes="ccccc"
       inkscape:connector-curvature="0"
       id="path4190-7"
       d="m -5.83367,57.696773 c 1.123518,0.216359 1.196775,-1.3512 1.415564,-2.671566 l 0.141557,-6.478547 2.972687,0 -0.07078,9.550847"
       style="fill:none;fill-rule:evenodd;stroke:#ffffff;stroke-width:1.08124673px;stroke-linecap:butt;stroke-linejoin:miter;stroke-opacity:1" /></g></svg>