<?xml version="1.0" encoding="UTF-8" standalone="no"?>
<!-- Generator: Adobe Illustrator 17.0.0, SVG Export Plug-In . SVG Version: 6.00 Build 0)  -->

<svg
   xmlns:dc="http://purl.org/dc/elements/1.1/"
   xmlns:cc="http://creativecommons.org/ns#"
   xmlns:rdf="http://www.w3.org/1999/02/22-rdf-syntax-ns#"
   xmlns:svg="http://www.w3.org/2000/svg"
   xmlns="http://www.w3.org/2000/svg"
   xmlns:sodipodi="http://sodipodi.sourceforge.net/DTD/sodipodi-0.dtd"
   xmlns:inkscape="http://www.inkscape.org/namespaces/inkscape"
   version="1.1"
   id="Layer_1"
   x="0px"
   y="0px"
   width="62px"
   height="62px"
   viewBox="0 0 62 62"
   enable-background="new 0 0 62 62"
   xml:space="preserve"
   inkscape:version="0.91 r13725"
   sodipodi:docname="logo.svg"
   inkscape:export-filename="logo.png"
   inkscape:export-xdpi="209.03226"
   inkscape:export-ydpi="209.03226"><metadata
     id="metadata13"><rdf:RDF><cc:Work
         rdf:about=""><dc:format>image/svg+xml</dc:format><dc:type
           rdf:resource="http://purl.org/dc/dcmitype/StillImage" /><dc:title></dc:title></cc:Work></rdf:RDF></metadata><defs
     id="defs11" /><sodipodi:namedview
     pagecolor="#ffffff"
     bordercolor="#666666"
     borderopacity="1"
     objecttolerance="10"
     gridtolerance="10"
     guidetolerance="10"
     inkscape:pageopacity="0"
     inkscape:pageshadow="2"
     inkscape:window-width="1743"
     inkscape:window-height="870"
     id="namedview9"
     showgrid="false"
     inkscape:zoom="5.3831355"
     inkscape:cx="-4.4580934"
     inkscape:cy="28.914275"
     inkscape:window-x="65"
     inkscape:window-y="24"
     inkscape:window-maximized="0"
     inkscape:current-layer="Layer_1" /><circle
     fill-rule="evenodd"
     clip-rule="evenodd"
     fill="#FFFFFF"
     cx="31"
     cy="31"
     r="31"
     id="circle3" /><g
     id="g5"><path
       fill-rule="evenodd"
       clip-rule="evenodd"
       fill="#3578AD"
       d="M29.57,31.31c1.42,1.36,3.65,1.18,4.93-0.04   c1.35-1.28,1.33-3.41,0.04-4.64c-1.36-1.3-3.55-1.28-4.9,0.01C28.19,28.02,28.31,30.11,29.57,31.31z M31.29,29.73   c0.51,0.49,1.17,0.32,1.55-0.04c0.48-0.47,0.35-1.12-0.03-1.48c-0.47-0.45-1.12-0.35-1.5,0.02C30.82,28.69,30.89,29.34,31.29,29.73   z M26.32,34.48c3.16,3.01,8.34,2.81,11.41-0.12c2.07-1.98,3.44-5.62,1.45-9.17c-0.27-0.46-0.88-1.24-0.95-1.3l-0.85-0.81   c-3.74-2.98-8.45-1.93-10.97,0.48C23.17,26.65,23.26,31.56,26.32,34.48z M28.01,32.86c2.31,2.21,5.88,1.98,8.05-0.09   c1.42-1.35,2.43-3.95,1.12-6.32c-0.2-0.33-0.58-0.88-0.64-0.95l-0.82-0.77c-2.76-2.04-5.85-1.3-7.64,0.41   C25.69,27.42,25.84,30.79,28.01,32.86z M14.13,21.72c-3.8,8.17-0.79,16.13,3.73,20.44c1.77,1.69,3.98,3.14,6.51,4.1   c0.45,0.16,0.86-0.04,1.1-0.27c0.52-0.49,0.32-1.21-0.06-1.57c-0.06-0.06-1.09-0.58-1.6-0.87c-0.85-0.48-1.94-1.06-2.66-1.61   l-0.88-0.65l-1.5-1.43c-0.54-0.78-1.25-1.59-1.76-2.47c-1.38-2.44-2.52-5.24-2.25-9.13c0.23-3.47,1.6-6.33,3.16-8.53   c0.38-0.49,0.79-1.02,1.21-1.48c0.65-0.76,0.9-0.99,1.65-1.58c2.56-2.11,5.72-3.64,10.01-4.1l0.11,3.33   c-3.4,0.26-6.53,1.95-8.53,3.86c-5.46,5.21-5.46,13.58-0.16,18.64c5.37,5.12,14.14,4.99,19.53-0.15c2.04-1.95,3.7-4.84,4.11-8.27   h3.39c-0.3,3.54-1.7,6.43-3.43,8.66c-0.28,0.33-0.69,0.92-0.8,1.02l-1.89,1.81c-0.63,0.47-1.28,0.9-1.87,1.33   c-3.1,2.24-8,3.1-11.09,3.45c-1.03,0.07-2.33,0.41-3.26,0.71c-2.37,0.77-4.57,2.1-6.2,3.65c-0.41,0.39-0.97,1.11-0.25,1.8   c0.27,0.26,1.12,0.48,1.57,0.05l0.76-0.73c1.11-0.85,2.35-1.71,3.76-2.28c2.47-1.07,6.21-1.19,9.16-1.87   c1.23-0.27,2.57-0.77,3.57-1.2c1.41-0.64,4.23-2.16,5.51-3.38l1.83-1.75c0.49-0.59,1.04-1.25,1.46-1.84   c0.38-0.49,0.76-1.05,1.04-1.58c0.24-0.42,0.55-0.92,0.73-1.41c0.45-0.95,0.91-2.03,1.16-3.18c0.1-0.29,1.13-4.32,0.24-5.17   c-0.27-0.26-0.61-0.32-1.09-0.32c-1.23,0.01-2.53-0.04-3.73,0c-1.3,0.01-1.92-0.18-2.47,0.35c-0.11,0.09-0.35,0.33-0.35,0.52   c-0.2,3.57-1.49,6.16-3.49,8.07c-3.87,3.69-10.56,4.82-15.97,0.45l-0.65-0.61c-4.58-5.17-3.36-11.52,0.51-15.21   c0.66-0.63,1.45-1.26,2.27-1.72c0.38-0.23,0.8-0.43,1.14-0.56c0.89-0.47,2.03-0.77,3.19-0.91c0.59-0.1,1.24-0.08,1.75-0.18   c0.21-0.07,0.45-0.23,0.52-0.3c0.69-0.66,0.26-2.32,0.3-3.33c0.01-0.98-0.05-2.03-0.11-3.01c-0.07-0.39-0.24-0.55-0.37-0.68   c-0.41-0.39-1.06-0.36-2.02-0.28c-2.78,0.25-5.25,1.05-7.28,2.01c-1.86,0.87-3.65,2.19-5.07,3.54   C16.67,17.48,15.21,19.46,14.13,21.72z"
       id="path7" /></g></svg>