<?xml version="1.0" encoding="UTF-8" standalone="no"?>
<!-- Generator: Adobe Illustrator 17.0.0, SVG Export Plug-In . SVG Version: 6.00 Build 0)  -->

<svg
   xmlns:dc="http://purl.org/dc/elements/1.1/"
   xmlns:cc="http://creativecommons.org/ns#"
   xmlns:rdf="http://www.w3.org/1999/02/22-rdf-syntax-ns#"
   xmlns:svg="http://www.w3.org/2000/svg"
   xmlns="http://www.w3.org/2000/svg"
   xmlns:sodipodi="http://sodipodi.sourceforge.net/DTD/sodipodi-0.dtd"
   xmlns:inkscape="http://www.inkscape.org/namespaces/inkscape"
   version="1.1"
   id="Layer_1"
   x="0px"
   y="0px"
   width="30"
   height="30"
   viewBox="0 0 30 30"
   xml:space="preserve"
   inkscape:version="0.91 r13725"
   sodipodi:docname="clip.svg"><metadata
     id="metadata9"><rdf:RDF><cc:Work
         rdf:about=""><dc:format>image/svg+xml</dc:format><dc:type
           rdf:resource="http://purl.org/dc/dcmitype/StillImage" /><dc:title></dc:title></cc:Work></rdf:RDF></metadata><defs
     id="defs7" /><sodipodi:namedview
     pagecolor="#ffffff"
     bordercolor="#666666"
     borderopacity="1"
     objecttolerance="10"
     gridtolerance="10"
     guidetolerance="10"
     inkscape:pageopacity="0"
     inkscape:pageshadow="2"
     inkscape:window-width="1080"
     inkscape:window-height="702"
     id="namedview5"
     showgrid="false"
     inkscape:zoom="6.5555556"
     inkscape:cx="18"
     inkscape:cy="18"
     inkscape:window-x="650"
     inkscape:window-y="88"
     inkscape:window-maximized="0"
     inkscape:current-layer="Layer_1" /><path
     style="clip-rule:evenodd;fill:#c8c8c8;fill-rule:evenodd"
     d="m 0.38135593,0.56779663 0,29.16949137 6.54237287,-0.01723 0,-1.308648 16.3559322,0 0,1.263568 6.542373,-0.01723 0,-29.08993842 -29.44067807,0 z M 4.7429378,28.411402 l -3.2711864,0 0,-2.651772 3.2711864,0 0,2.651772 z m 0,-3.977658 -3.2711864,0 0,-2.651772 3.2711864,0 0,2.651772 z m 0,-3.977658 -3.2711864,0 0,-2.651772 3.2711864,0 0,2.651772 z m 0,-3.977658 -3.2711864,0 0,-2.651772 3.2711864,0 0,2.651772 z m 0,-3.977658 -3.2711864,0 0,-2.6517717 3.2711864,0 0,2.6517717 z m 0,-3.9776572 -3.2711864,0 0,-2.6517722 3.2711864,0 0,2.6517722 z m 0,-3.9776582 -3.2711864,0 0,-2.6517719 3.2711864,0 0,2.6517719 z m 18.5367232,22.5798384 -16.3559322,0 0,-12.025786 16.3559322,0 0,12.025786 z m 0,-13.205825 -16.3559322,0 0,-12.0257853 16.3559322,0 0,12.0257853 z m 5.451977,14.491934 -3.271186,0 0,-2.651772 3.271186,0 0,2.651772 z m 0,-3.977658 -3.271186,0 0,-2.651772 3.271186,0 0,2.651772 z m 0,-3.977658 -3.271186,0 0,-2.651772 3.271186,0 0,2.651772 z m 0,-3.977658 -3.271186,0 0,-2.651772 3.271186,0 0,2.651772 z m 0,-3.977658 -3.271186,0 0,-2.6517717 3.271186,0 0,2.6517717 z m 0,-3.9776572 -3.271186,0 0,-2.6517722 3.271186,0 0,2.6517722 z m 0,-3.9776582 -3.271186,0 0,-2.6517719 3.271186,0 0,2.6517719 z"
     id="path3"
     inkscape:connector-curvature="0" /></svg>