<?xml version="1.0" encoding="UTF-8" standalone="no"?>
<!-- Generator: Adobe Illustrator 17.0.0, SVG Export Plug-In . SVG Version: 6.00 Build 0)  -->

<svg
   xmlns:dc="http://purl.org/dc/elements/1.1/"
   xmlns:cc="http://creativecommons.org/ns#"
   xmlns:rdf="http://www.w3.org/1999/02/22-rdf-syntax-ns#"
   xmlns:svg="http://www.w3.org/2000/svg"
   xmlns="http://www.w3.org/2000/svg"
   xmlns:sodipodi="http://sodipodi.sourceforge.net/DTD/sodipodi-0.dtd"
   xmlns:inkscape="http://www.inkscape.org/namespaces/inkscape"
   version="1.1"
   id="Layer_1"
   x="0px"
   y="0px"
   width="25"
   height="25"
   viewBox="0 0 25 25"
   xml:space="preserve"
   inkscape:version="0.91 r13725"
   sodipodi:docname="clip-calendar.svg"><metadata
     id="metadata11"><rdf:RDF><cc:Work
         rdf:about=""><dc:format>image/svg+xml</dc:format><dc:type
           rdf:resource="http://purl.org/dc/dcmitype/StillImage" /><dc:title></dc:title></cc:Work></rdf:RDF></metadata><defs
     id="defs9" /><sodipodi:namedview
     pagecolor="#000000"
     bordercolor="#666666"
     borderopacity="1"
     objecttolerance="10"
     gridtolerance="10"
     guidetolerance="10"
     inkscape:pageopacity="0"
     inkscape:pageshadow="2"
     inkscape:window-width="1855"
     inkscape:window-height="1056"
     id="namedview7"
     showgrid="false"
     inkscape:zoom="6.5555556"
     inkscape:cx="18"
     inkscape:cy="18"
     inkscape:window-x="65"
     inkscape:window-y="24"
     inkscape:window-maximized="1"
     inkscape:current-layer="Layer_1" /><g
     id="g3"
     transform="matrix(0.67931433,0,0,0.82521187,0.28081664,-2.4385593)"
     style="fill:#12658c;fill-opacity:1;stroke:none;stroke-opacity:1"><path
       style="clip-rule:evenodd;fill:#12658c;fill-rule:evenodd;fill-opacity:1;stroke:none;stroke-opacity:1"
       d="M 8.94,3.6 C 8.45,3.6 8.06,4 8.06,4.48 l 0,2.65 c 0,0.49 0.39,0.89 0.88,0.89 0.48,0 0.88,-0.4 0.88,-0.89 l 0,-2.65 C 9.82,4 9.42,3.6 8.94,3.6 Z M 1.72,5.9 C 0.99,5.9 0.4,6.49 0.4,7.22 l 0,2.39 35.2,0 0,-2.39 C 35.6,6.49 35.01,5.9 34.28,5.9 l -5.81,0 0,1.32 c 0,0.88 -0.71,1.59 -1.58,1.59 -0.88,0 -1.59,-0.71 -1.59,-1.59 l 0,-1.32 -14.78,0 0,1.32 C 10.52,8.1 9.81,8.81 8.94,8.81 8.06,8.81 7.35,8.1 7.35,7.22 l 0,-1.32 -5.63,0 z m -1.32,4.15 0,21.02 c 0,0.74 0.59,1.33 1.32,1.33 l 32.56,0 c 0.73,0 1.32,-0.59 1.32,-1.33 l 0,-21.02 -35.2,0 z m 1.85,1.68 5.28,0 0,5.3 -5.28,0 0,-5.3 z m 6.42,0 5.28,0 0,5.3 -5.28,0 0,-5.3 z m 6.51,0 5.28,0 0,5.3 -5.28,0 0,-5.3 z m 6.52,0 5.28,0 0,5.3 -5.28,0 0,-5.3 z m 6.51,0 5.28,0 0,5.3 -5.28,0 0,-5.3 z m -25.96,6.8 5.28,0 0,5.3 -5.28,0 0,-5.3 z m 6.42,0 5.28,0 0,5.3 -5.28,0 0,-5.3 z m 6.51,0 5.28,0 0,5.3 -5.28,0 0,-5.3 z m 6.52,0 5.28,0 0,5.3 -5.28,0 0,-5.3 z m 6.51,0 5.28,0 0,5.3 -5.28,0 0,-5.3 z m -25.96,6.8 5.28,0 0,5.3 -5.28,0 0,-5.3 z m 6.42,0 5.28,0 0,5.3 -5.28,0 0,-5.3 z m 6.51,0 5.28,0 0,5.3 -5.28,0 0,-5.3 z m 6.52,0 5.28,0 0,5.3 -5.28,0 0,-5.3 z m 6.51,0 5.28,0 0,5.3 -5.28,0 0,-5.3 z M 26.89,3.6 C 26.4,3.6 26.01,4 26.01,4.48 l 0,2.65 c 0,0.49 0.39,0.89 0.88,0.89 0.48,0 0.88,-0.4 0.88,-0.89 l 0,-2.65 C 27.77,4 27.37,3.6 26.89,3.6 Z"
       id="path5"
       inkscape:connector-curvature="0" /></g></svg>