<?xml version="1.0" encoding="UTF-8" standalone="no"?>
<!-- Generator: Adobe Illustrator 17.0.0, SVG Export Plug-In . SVG Version: 6.00 Build 0)  -->

<svg
   xmlns:dc="http://purl.org/dc/elements/1.1/"
   xmlns:cc="http://creativecommons.org/ns#"
   xmlns:rdf="http://www.w3.org/1999/02/22-rdf-syntax-ns#"
   xmlns:svg="http://www.w3.org/2000/svg"
   xmlns="http://www.w3.org/2000/svg"
   xmlns:sodipodi="http://sodipodi.sourceforge.net/DTD/sodipodi-0.dtd"
   xmlns:inkscape="http://www.inkscape.org/namespaces/inkscape"
   version="1.1"
   id="Layer_1"
   x="0px"
   y="0px"
   width="36px"
   height="36px"
   viewBox="0 0 36 36"
   style="enable-background:new 0 0 36 36;"
   xml:space="preserve"
   inkscape:version="0.91 r13725"
   sodipodi:docname="live.svg"><metadata
     id="metadata13"><rdf:RDF><cc:Work
         rdf:about=""><dc:format>image/svg+xml</dc:format><dc:type
           rdf:resource="http://purl.org/dc/dcmitype/StillImage" /><dc:title></dc:title></cc:Work></rdf:RDF></metadata><defs
     id="defs11" /><sodipodi:namedview
     pagecolor="#ff68ff"
     bordercolor="#666666"
     borderopacity="1"
     objecttolerance="10"
     gridtolerance="10"
     guidetolerance="10"
     inkscape:pageopacity="0"
     inkscape:pageshadow="2"
     inkscape:window-width="1855"
     inkscape:window-height="1056"
     id="namedview9"
     showgrid="false"
     inkscape:zoom="6.5555556"
     inkscape:cx="18"
     inkscape:cy="18"
     inkscape:window-x="65"
     inkscape:window-y="24"
     inkscape:window-maximized="1"
     inkscape:current-layer="Layer_1" /><g
     id="g3"
     transform="translate(-0.15254237,-1.0677966)"><path
       style="clip-rule:evenodd;fill:#ffffff;fill-rule:evenodd"
       d="m 18.193,5.733 c 7.342,0 13.293,5.951 13.293,13.293 0,7.342 -5.951,13.293 -13.293,13.293 C 10.851,32.319 4.9,26.368 4.9,19.026 4.9,11.684 10.851,5.733 18.193,5.733 Z m 0,-1.816 c 8.345,0 15.109,6.765 15.109,15.109 0,8.344 -6.765,15.109 -15.109,15.109 -8.344,0 -15.11,-6.764 -15.11,-15.109 0,-8.345 6.765,-15.109 15.11,-15.109 z"
       id="path5"
       inkscape:connector-curvature="0" /><path
       style="clip-rule:evenodd;fill:#ffffff;fill-rule:evenodd"
       d="m 13.811,17.837 c 0,2.378 1.913,4.339 4.265,4.339 1.859,0 3.883,-1.271 4.292,-3.841 l 0,-1.022 c -0.054,-0.277 -0.136,-0.607 -0.219,-0.912 0.411,0.25 0.821,0.526 1.23,0.912 0.11,0.111 1.395,1.465 1.395,1.686 0,0.083 -0.246,0.33 -0.356,0.524 -0.711,0.995 -1.887,1.905 -2.789,2.376 -1.094,0.553 -2.406,0.884 -3.527,0.884 -0.548,0 -1.121,-0.083 -1.64,-0.192 -0.602,-0.111 -1.34,-0.388 -1.914,-0.691 -0.411,-0.221 -0.93,-0.524 -1.367,-0.884 -0.492,-0.359 -1.013,-0.968 -1.368,-1.383 -0.163,-0.192 -0.409,-0.551 -0.409,-0.634 0,-0.056 0.192,-0.305 0.3,-0.471 0.548,-0.774 1.532,-1.713 2.326,-2.128 -0.275,0.748 -0.219,0.83 -0.219,1.437 z m 4.947,-4.198 c 1.395,0.111 2.925,0.524 4.321,1.41 0.575,0.386 1.34,0.939 1.859,1.546 0.219,0.25 0.492,0.524 0.684,0.801 0.163,0.194 1.011,1.465 1.011,1.604 0,0.083 -0.136,0.275 -0.219,0.413 -0.356,0.609 -0.875,1.383 -1.476,1.99 -2.105,2.211 -4.674,3.012 -6.862,3.012 -0.957,0 -2.133,-0.221 -3.091,-0.553 -1.23,-0.413 -2.624,-1.216 -3.773,-2.458 -0.163,-0.165 -1.64,-1.934 -1.64,-2.403 0,-0.084 0.11,-0.277 0.163,-0.388 0.356,-0.663 0.848,-1.354 1.449,-1.988 1.367,-1.465 2.871,-2.239 4.321,-2.652 0.629,-0.167 1.23,-0.277 1.886,-0.332 l 1.367,0 z"
       id="path7"
       inkscape:connector-curvature="0" /></g></svg>