<?xml version="1.0" encoding="UTF-8" standalone="no"?>
<svg
   xmlns:dc="http://purl.org/dc/elements/1.1/"
   xmlns:cc="http://creativecommons.org/ns#"
   xmlns:rdf="http://www.w3.org/1999/02/22-rdf-syntax-ns#"
   xmlns:svg="http://www.w3.org/2000/svg"
   xmlns="http://www.w3.org/2000/svg"
   xmlns:sodipodi="http://sodipodi.sourceforge.net/DTD/sodipodi-0.dtd"
   xmlns:inkscape="http://www.inkscape.org/namespaces/inkscape"
   width="23"
   height="23"
   viewBox="0 0 23 23"
   id="svg2"
   version="1.1"
   inkscape:version="0.91 r13725"
   sodipodi:docname="microphone.svg">
  <metadata
     id="metadata10">
    <rdf:RDF>
      <cc:Work
         rdf:about="">
        <dc:format>image/svg+xml</dc:format>
        <dc:type
           rdf:resource="http://purl.org/dc/dcmitype/StillImage" />
        <dc:title></dc:title>
      </cc:Work>
    </rdf:RDF>
  </metadata>
  <defs
     id="defs8" />
  <sodipodi:namedview
     pagecolor="#ff4dff"
     bordercolor="#666666"
     borderopacity="1"
     objecttolerance="10"
     gridtolerance="10"
     guidetolerance="10"
     inkscape:pageopacity="1"
     inkscape:pageshadow="2"
     inkscape:window-width="1387"
     inkscape:window-height="518"
     id="namedview6"
     showgrid="false"
     inkscape:zoom="7.2555305"
     inkscape:cx="10.214191"
     inkscape:cy="15.169793"
     inkscape:window-x="88"
     inkscape:window-y="45"
     inkscape:window-maximized="0"
     inkscape:current-layer="svg2" />
  <path
     d="m 18.996951,9.8621741 c 0,3.7999999 -2.8,6.8999999 -6.5,7.3999999 l 0,3.6 2.5,0 c 0.6,0 1,0.4 1,1 0,0.6 -0.4,1 -1,1 l -7,0 c -0.6,0 -1,-0.4 -1,-1 0,-0.6 0.4,-1 1,-1 l 2.5,0 0,-3.6 c -3.7,-0.5 -6.5,-3.6 -6.5,-7.3999999 l 0,-2 c 0,-0.6 0.4,-1 1,-1 0.6,0 1,0.4 1,1 l 0,2 c 0,2.9999999 2.5,5.4999999 5.5,5.4999999 3,0 5.5,-2.5 5.5,-5.4999999 l 0,-2 c 0,-0.6 0.4,-1 1,-1 0.6,0 1,0.4 1,1 l 0,2 z m -2,-5.1 c 0,0 0,0.1 0,0 z m -5.5,8.5999999 c -1.8,0 -3.5,-1.6 -3.5,-3.3999999 l 0,-6.6 c 0,-1.8 1.7,-3.5 3.5,-3.5 1.8,0 3.5,1.3 3.5,3.1 l 0,7 c 0,1.7999999 -1.7,3.3999999 -3.5,3.3999999 z m -5.5,-8.5999999 c 0,0.1 0,0 0,0 z"
     id="path4"
     inkscape:connector-curvature="0"
     style="fill:#ffffff" />
</svg>
