<svg xmlns="http://www.w3.org/2000/svg" viewBox="0 0 52 52" enable-background="new 0 0 52 52"><filter height="56" width="55" y="61" x="23" filterUnits="userSpaceOnUse" id="a"><feOffset dx=".5" dy=".866" in="SourceAlpha"/><feGaussianBlur stdDeviation="1.414" result="blurOut"/><feFlood result="floodOut" flood-color="#000"/><feComposite in2="blurOut" in="floodOut" operator="atop"/><feComponentTransfer><feFuncA type="linear" slope=".32"/></feComponentTransfer><feMerge><feMergeNode/><feMergeNode in="SourceGraphic"/></feMerge></filter><path fill="#8B98A6" d="M26 0c14.4 0 26 11.6 26 26S40.4 52 26 52 0 40.4 0 26 11.6 0 26 0z" filter="url(#a)"/><linearGradient id="b" gradientUnits="userSpaceOnUse" x1="-265.288" y1="386.942" x2="-265.288" y2="385.942" gradientTransform="matrix(52 0 0 52 13821 -20069)"><stop offset="0" stop-color="#768494"/><stop offset="1" stop-color="#9AA7B3"/></linearGradient><path fill="url(#b)" d="M26 0c14.4 0 26 11.6 26 26S40.4 52 26 52 0 40.4 0 26 11.6 0 26 0z"/><path fill="#fff" d="M38 24.8v2.4l-2.2.7c-.2.9-.4 1.7-.8 2.5l1.4 1.9-1.4 1.9-2.3-.8c-.6.5-1.3 1-2 1.4v2.5l-2.1.7-1.4-2.1c-.4.1-.8.1-1.2.1s-.8 0-1.2-.1L23.4 38l-2.2-.7v-2.5c-.7-.4-1.4-.9-2-1.4l-2.2.8-1.4-1.9 1.4-1.9c-.4-.8-.7-1.6-.8-2.5l-2.2-.7v-2.4l2.2-.7c.2-.9.4-1.7.8-2.5l-1.4-1.9 1.4-1.9 2.3.8c.6-.5 1.3-1 2-1.4v-2.5l2.2-.7 1.4 2.1c.4 0 .8-.1 1.2-.1s.8 0 1.2.1l1.4-2.1 2.2.7v2.5c.7.4 1.4.9 2 1.4l2.3-.8 1.4 1.9-1.6 2c.4.8.7 1.6.8 2.5l2.2.6zM26 19c-3.9 0-7 3.1-7 7s3.1 7 7 7 7-3.1 7-7-3.1-7-7-7z"/></svg>