<svg xmlns="http://www.w3.org/2000/svg" width="27.5" height="22" viewBox="0 0 27.5 22"><path fill="#fff" d="M23.6 21.5c-.4.5-1.2.5-1.6 0-.4-.4-.4-1-.1-1.5 2.1-2.4 3.3-5.5 3.3-8.9 0-3.5-1.4-6.8-3.6-9.2-.4-.4-.3-1.1.1-1.5.4-.5 1.2-.4 1.6 0 2.6 2.8 4.2 6.6 4.2 10.7 0 4-1.5 7.6-3.9 10.4z"/><path fill="#fff" d="M17.6 17.3c-.4-.4-.4-1-.1-1.4 1-1.3 1.6-2.9 1.6-4.7s-.6-3.5-1.7-4.8c-.3-.4-.3-1.1.1-1.5.5-.5 1.2-.4 1.6.1 1.4 1.7 2.2 3.9 2.2 6.2s-.8 4.4-2.1 6.1c-.4.4-1.2.5-1.6 0z"/><path fill="#fff" d="M13.8 0v22l-7.1-6H.6c-.4 0-.6-.3-.6-.6V6.6c0-.3.2-.6.6-.6h6.1l7.1-6z"/></svg>
