<?xml version="1.0" encoding="UTF-8" standalone="no"?>
<!-- Generator: Adobe Illustrator 19.2.1, SVG Export Plug-In . SVG Version: 6.00 Build 0)  -->

<svg
   xmlns:dc="http://purl.org/dc/elements/1.1/"
   xmlns:cc="http://creativecommons.org/ns#"
   xmlns:rdf="http://www.w3.org/1999/02/22-rdf-syntax-ns#"
   xmlns:svg="http://www.w3.org/2000/svg"
   xmlns="http://www.w3.org/2000/svg"
   xmlns:sodipodi="http://sodipodi.sourceforge.net/DTD/sodipodi-0.dtd"
   xmlns:inkscape="http://www.inkscape.org/namespaces/inkscape"
   version="1.1"
   id="Слой_1"
   x="0px"
   y="0px"
   viewBox="0 0 25 25"
   xml:space="preserve"
   inkscape:version="0.91 r13725"
   sodipodi:docname="share_white_25x25.svg"
   width="25"
   height="25"><metadata
     id="metadata17"><rdf:RDF><cc:Work
         rdf:about=""><dc:format>image/svg+xml</dc:format><dc:type
           rdf:resource="http://purl.org/dc/dcmitype/StillImage" /><dc:title></dc:title></cc:Work></rdf:RDF></metadata><defs
     id="defs15" /><sodipodi:namedview
     pagecolor="#3788b1"
     bordercolor="#666666"
     borderopacity="1"
     objecttolerance="10"
     gridtolerance="10"
     guidetolerance="10"
     inkscape:pageopacity="1"
     inkscape:pageshadow="2"
     inkscape:window-width="1634"
     inkscape:window-height="847"
     id="namedview13"
     showgrid="false"
     inkscape:zoom="18.153846"
     inkscape:cx="7.1854414"
     inkscape:cy="6.4901078"
     inkscape:window-x="107"
     inkscape:window-y="103"
     inkscape:window-maximized="0"
     inkscape:current-layer="Слой_1" /><style
     type="text/css"
     id="style3">
	.st0{fill:#FFFFFF;}
	.st1{fill-rule:evenodd;clip-rule:evenodd;fill:#FFFFFF;}
</style><polygon
     class="st0"
     points="22.2,22.9 21.1,24.5 4.2,13.3 21.1,2 22.2,3.6 7.8,13.3 "
     id="polygon5"
     style="fill:#ffffff;fill-opacity:1"
     transform="matrix(0.72062536,0.07290152,0.04109338,0.79559592,0.76463804,1.5583061)" /><path
     class="st1"
     d="m 12.486514,5.6412807 c 0,-2.0390492 1.663552,-3.6146782 3.604362,-3.6146782 2.03323,0 3.604362,1.668313 3.604362,3.6146782 0,2.0390493 -1.663552,3.6146783 -3.604362,3.6146783 -2.03323,0.092684 -3.604362,-1.575629 -3.604362,-3.6146783 z"
     id="path7"
     inkscape:connector-curvature="0"
     style="clip-rule:evenodd;fill:#ffffff;fill-opacity:1;fill-rule:evenodd" /><path
     class="st1"
     d="m 11.753131,19.978992 c 0,-2.039049 1.663552,-3.614678 3.604362,-3.614678 2.03323,0 3.604362,1.668313 3.604362,3.614678 0,2.03905 -1.663552,3.614679 -3.604362,3.614679 -2.03323,0 -3.604362,-1.668313 -3.604362,-3.614679 z"
     id="path9"
     inkscape:connector-curvature="0"
     style="clip-rule:evenodd;fill:#ffffff;fill-opacity:1;fill-rule:evenodd" /><path
     class="st1"
     d="m 1.920339,12.738844 c 0,-2.039049 1.571132,-3.6146782 3.6043617,-3.6146782 1.9408101,0 3.6043617,1.6683132 3.6043617,3.6146782 0,2.039049 -1.6635516,3.614678 -3.6043617,3.614678 -1.9408102,0 -3.6043617,-1.668313 -3.6043617,-3.614678 z"
     id="path11"
     inkscape:connector-curvature="0"
     style="clip-rule:evenodd;fill:#ffffff;fill-opacity:1;fill-rule:evenodd" /></svg>