<?xml version="1.0" encoding="iso-8859-1"?>
<!-- Generator: Adobe Illustrator 17.0.0, SVG Export Plug-In . SVG Version: 6.00 Build 0)  -->
<!DOCTYPE svg PUBLIC "-//W3C//DTD SVG 1.1//EN" "http://www.w3.org/Graphics/SVG/1.1/DTD/svg11.dtd">
<svg version="1.1" id="Layer_1" xmlns="http://www.w3.org/2000/svg" xmlns:xlink="http://www.w3.org/1999/xlink" x="0px" y="0px"
	 width="36px" height="36px" viewBox="0 0 36 36" style="enable-background:new 0 0 36 36;" xml:space="preserve">
<g>
	<path style="fill-rule:evenodd;clip-rule:evenodd;fill:#12658C;" d="M11.52,14.78c-1.67,0-3.02,1.28-3.02,2.86v8.5
		c0,1.58,1.35,2.86,3.02,2.86h12.96c1.67,0,3.02-1.28,3.02-2.86v-8.5c0-1.58-1.35-2.86-3.02-2.86h-0.44v-2.63h-0.31
		C23.57,9.28,21.07,7,18,7s-5.57,2.28-5.73,5.15h-0.31v2.63H11.52z M21.62,14.78h-7.24v-2.63h-0.07c0.15-1.8,1.75-3.22,3.69-3.22
		s3.54,1.42,3.69,3.22h-0.07V14.78z M16.49,21.03c0-0.79,0.68-1.43,1.51-1.43s1.51,0.64,1.51,1.43c0,0.79-0.68,1.43-1.51,1.43
		S16.49,21.82,16.49,21.03z"/>
</g>
</svg>
