<?xml version="1.0" encoding="iso-8859-1"?>
<!-- Generator: Adobe Illustrator 17.0.0, SVG Export Plug-In . SVG Version: 6.00 Build 0)  -->
<!DOCTYPE svg PUBLIC "-//W3C//DTD SVG 1.1//EN" "http://www.w3.org/Graphics/SVG/1.1/DTD/svg11.dtd">
<svg version="1.1" id="Layer_1" xmlns="http://www.w3.org/2000/svg" xmlns:xlink="http://www.w3.org/1999/xlink" x="0px" y="0px"
	 width="53.417px" height="36px" viewBox="0 0 53.417 36" style="enable-background:new 0 0 53.417 36;" xml:space="preserve">
<path style="fill-rule:evenodd;clip-rule:evenodd;fill:#12658C;" d="M7.137,32c-1.378,0-4.157-2.381-4.157-4.39V7.89
	C2.98,5.881,5.758,4,7.137,4H25.98v28H7.137z"/>
<path style="fill-rule:evenodd;clip-rule:evenodd;fill:#FFFFFF;" d="M45.823,32c1.378,0,4.157-2.381,4.157-4.39V7.89
	c0-2.009-2.778-3.89-4.157-3.89H26.98v28H45.823z"/>
<path style="fill:#FFFFFF;" d="M47.157,33.875H7.137c-2.713,0-5.99-2.738-5.99-6.14V8.015c0-3.401,3.277-6.14,5.99-6.14h40.02
	c2.752,0,4.99,2.754,4.99,6.14v19.72C52.147,31.121,49.909,33.875,47.157,33.875z M7.137,2.875c-2.246,0-4.99,2.372-4.99,5.14v19.72
	c0,2.768,2.744,5.14,4.99,5.14h40.02c2.2,0,3.99-2.306,3.99-5.14V8.015c0-2.834-1.79-5.14-3.99-5.14H7.137z"/>
</svg>
