<?xml version="1.0" encoding="UTF-8" standalone="no"?>
<!-- Generator: Adobe Illustrator 17.0.0, SVG Export Plug-In . SVG Version: 6.00 Build 0)  -->

<svg
   xmlns:dc="http://purl.org/dc/elements/1.1/"
   xmlns:cc="http://creativecommons.org/ns#"
   xmlns:rdf="http://www.w3.org/1999/02/22-rdf-syntax-ns#"
   xmlns:svg="http://www.w3.org/2000/svg"
   xmlns="http://www.w3.org/2000/svg"
   xmlns:xlink="http://www.w3.org/1999/xlink"
   xmlns:sodipodi="http://sodipodi.sourceforge.net/DTD/sodipodi-0.dtd"
   xmlns:inkscape="http://www.inkscape.org/namespaces/inkscape"
   version="1.1"
   id="Layer_1"
   x="0px"
   y="0px"
   width="36"
   height="36"
   viewBox="0 0 36 36"
   xml:space="preserve"
   inkscape:version="0.91 r13725"
   sodipodi:docname="clip_white_36x36.svg"><metadata
     id="metadata9"><rdf:RDF><cc:Work
         rdf:about=""><dc:format>image/svg+xml</dc:format><dc:type
           rdf:resource="http://purl.org/dc/dcmitype/StillImage" /><dc:title /></cc:Work></rdf:RDF></metadata><defs
     id="defs7"><linearGradient
       inkscape:collect="always"
       id="linearGradient5638"><stop
         style="stop-color:#000000;stop-opacity:1;"
         offset="0"
         id="stop5640" /><stop
         style="stop-color:#000000;stop-opacity:0;"
         offset="1"
         id="stop5642" /></linearGradient><linearGradient
       inkscape:collect="always"
       id="linearGradient5630"><stop
         style="stop-color:#000000;stop-opacity:1;"
         offset="0"
         id="stop5632" /><stop
         style="stop-color:#000000;stop-opacity:0;"
         offset="1"
         id="stop5634" /></linearGradient><radialGradient
       inkscape:collect="always"
       xlink:href="#linearGradient5630"
       id="radialGradient5636"
       cx="18.040213"
       cy="17.932823"
       fx="18.040213"
       fy="17.932823"
       r="17.775073"
       gradientTransform="matrix(1.0132553,0,0,1.0120565,-0.27934069,-0.14902966)"
       gradientUnits="userSpaceOnUse" /><radialGradient
       inkscape:collect="always"
       xlink:href="#linearGradient5638"
       id="radialGradient5644"
       cx="18.040213"
       cy="17.932823"
       fx="18.040213"
       fy="17.932823"
       r="17.775073"
       gradientTransform="matrix(1.0132553,0,0,1.0120565,-0.27934069,-0.14902966)"
       gradientUnits="userSpaceOnUse" /></defs><sodipodi:namedview
     pagecolor="#ffffff"
     bordercolor="#666666"
     borderopacity="1"
     objecttolerance="10"
     gridtolerance="10"
     guidetolerance="10"
     inkscape:pageopacity="0"
     inkscape:pageshadow="2"
     inkscape:window-width="1855"
     inkscape:window-height="1056"
     id="namedview5"
     showgrid="false"
     inkscape:zoom="9.2709555"
     inkscape:cx="-16.510408"
     inkscape:cy="14.318721"
     inkscape:window-x="65"
     inkscape:window-y="24"
     inkscape:window-maximized="1"
     inkscape:current-layer="Layer_1" /><circle
     style="opacity:1;fill:url(#radialGradient5636);fill-opacity:1;fill-rule:nonzero;stroke:url(#radialGradient5644);stroke-width:3.62814546;stroke-linecap:round;stroke-linejoin:round;stroke-miterlimit:4;stroke-dasharray:none;stroke-opacity:1"
     id="path5620"
     cx="17.999998"
     cy="18"
     r="16.185926" /><ellipse
     ry="14.769231"
     rx="14.76923"
     cy="17.999769"
     cx="18.000229"
     id="path4146"
     style="opacity:1;fill:#121212;fill-opacity:1;fill-rule:nonzero;stroke:#ffffff;stroke-width:2.46199989;stroke-linecap:round;stroke-linejoin:round;stroke-miterlimit:4;stroke-dasharray:none;stroke-opacity:1" /><path
     style="clip-rule:evenodd;fill:#ffffff;fill-opacity:1;fill-rule:evenodd"
     d="m 7,7 0,22 4.88889,-0.013 0,-0.986998 12.222221,0 0,0.952999 4.888889,-0.013 0,-21.9400003 -22,0 z m 3.25926,21 -2.4444456,0 0,-2 2.4444456,0 0,2 z m 0,-2.999999 -2.4444456,0 0,-2 2.4444456,0 0,2 z m 0,-3.000001 -2.4444456,0 0,-1.999999 2.4444456,0 0,1.999999 z m 0,-3 -2.4444456,0 0,-2 2.4444456,0 0,2 z m 0,-2.999999 -2.4444456,0 0,-2 2.4444456,0 0,2 z m 0,-3 -2.4444456,0 0,-2 2.4444456,0 0,2 z m 0,-2.999999 -2.4444456,0 0,-2.0000013 2.4444456,0 0,2.0000013 z m 13.851851,17.029999 -12.222221,0 0,-9.070001 12.222221,0 0,9.070001 z m 0,-9.96 -12.222221,0 0,-9.0700003 12.222221,0 0,9.0700003 z M 28.185185,28 l -2.444444,0 0,-2 2.444444,0 0,2 z m 0,-2.999999 -2.444444,0 0,-2 2.444444,0 0,2 z m 0,-3.000001 -2.444444,0 0,-1.999999 2.444444,0 0,1.999999 z m 0,-3 -2.444444,0 0,-2 2.444444,0 0,2 z m 0,-2.999999 -2.444444,0 0,-2 2.444444,0 0,2 z m 0,-3 -2.444444,0 0,-2 2.444444,0 0,2 z m 0,-2.999999 -2.444444,0 0,-2.0000013 2.444444,0 0,2.0000013 z"
     id="path3"
     inkscape:connector-curvature="0" /></svg>