<?xml version="1.0" encoding="UTF-8" standalone="no"?>
<svg
   xmlns:dc="http://purl.org/dc/elements/1.1/"
   xmlns:cc="http://creativecommons.org/ns#"
   xmlns:rdf="http://www.w3.org/1999/02/22-rdf-syntax-ns#"
   xmlns:svg="http://www.w3.org/2000/svg"
   xmlns="http://www.w3.org/2000/svg"
   xmlns:sodipodi="http://sodipodi.sourceforge.net/DTD/sodipodi-0.dtd"
   xmlns:inkscape="http://www.inkscape.org/namespaces/inkscape"
   width="25"
   height="25"
   viewBox="0 0 25 25"
   id="svg2"
   version="1.1"
   inkscape:version="0.91 r13725"
   sodipodi:docname="private_white_25x25.svg">
  <metadata
     id="metadata14">
    <rdf:RDF>
      <cc:Work
         rdf:about="">
        <dc:format>image/svg+xml</dc:format>
        <dc:type
           rdf:resource="http://purl.org/dc/dcmitype/StillImage" />
        <dc:title>16/download</dc:title>
      </cc:Work>
    </rdf:RDF>
  </metadata>
  <defs
     id="defs12" />
  <sodipodi:namedview
     pagecolor="#ff00ff"
     bordercolor="#666666"
     borderopacity="1"
     objecttolerance="10"
     gridtolerance="10"
     guidetolerance="10"
     inkscape:pageopacity="0"
     inkscape:pageshadow="2"
     inkscape:window-width="1855"
     inkscape:window-height="1056"
     id="namedview10"
     showgrid="false"
     inkscape:zoom="3.6875"
     inkscape:cx="57.452382"
     inkscape:cy="48.887878"
     inkscape:window-x="65"
     inkscape:window-y="24"
     inkscape:window-maximized="1"
     inkscape:current-layer="svg2"
     inkscape:snap-grids="true" />
  <title
     id="title4">16/download</title>
  <desc
     id="desc6">Created with Sketch.</desc>
  <path
     style="fill:#ffffff;fill-opacity:1;fill-rule:evenodd;stroke:none;stroke-width:2.25999999;stroke-linecap:round;stroke-linejoin:round;stroke-miterlimit:4;stroke-dasharray:none;stroke-opacity:1"
     d="M 12.310547,2.3574219 C 6.0439906,2.4086912 5.9949642,2.466948 5.6347656,11.466797 l -2.7989525,0.01628 c -0.7248312,0.02451 -0.7645068,0.02899 -0.7435409,0.685763 -0.060104,11.23099 -0.077851,11.293331 10.6114448,11.351777 10.258877,-0.0243 10.308022,-0.02743 10.295465,-11.153001 0.0096,-1.061165 -0.01788,-1.055516 -0.987131,-1.077124 L 19.76563,11.263672 C 19.719515,2.3591477 19.723607,2.3574219 12.310547,2.3574219 Z m 0.197265,3.3203125 c 4.451189,0.1074014 4.448914,0.059429 4.542969,5.6269536 L 8.8125,11.40625 C 8.7723825,5.6959226 8.8118865,5.7109259 12.507812,5.6777344 Z m 0.35339,9.4724456 c 1.404864,-0.108148 2.347359,1.235661 0.868814,2.318117 l -7.64e-4,1.355443 c -0.006,1.372135 -1.752049,1.243876 -1.748447,-0.07769 l 0.05101,-1.411713 c -1.475364,-0.696618 -0.559089,-2.208824 0.829387,-2.184157 z"
     id="path4146"
     inkscape:connector-curvature="0"
     sodipodi:nodetypes="ccccccccccccccccccc" />
</svg>
