<?xml version="1.0" encoding="UTF-8" standalone="no"?>
<!-- Generator: Adobe Illustrator 17.0.0, SVG Export Plug-In . SVG Version: 6.00 Build 0)  -->

<svg
   xmlns:dc="http://purl.org/dc/elements/1.1/"
   xmlns:cc="http://creativecommons.org/ns#"
   xmlns:rdf="http://www.w3.org/1999/02/22-rdf-syntax-ns#"
   xmlns:svg="http://www.w3.org/2000/svg"
   xmlns="http://www.w3.org/2000/svg"
   xmlns:xlink="http://www.w3.org/1999/xlink"
   xmlns:sodipodi="http://sodipodi.sourceforge.net/DTD/sodipodi-0.dtd"
   xmlns:inkscape="http://www.inkscape.org/namespaces/inkscape"
   version="1.1"
   id="Layer_1"
   x="0px"
   y="0px"
   width="36px"
   height="36px"
   viewBox="0 0 36 36"
   style="enable-background:new 0 0 36 36;"
   xml:space="preserve"
   inkscape:version="0.91 r13725"
   sodipodi:docname="settings_white_36x36.svg"><metadata
     id="metadata9"><rdf:RDF><cc:Work
         rdf:about=""><dc:format>image/svg+xml</dc:format><dc:type
           rdf:resource="http://purl.org/dc/dcmitype/StillImage" /><dc:title /></cc:Work></rdf:RDF></metadata><defs
     id="defs7"><linearGradient
       inkscape:collect="always"
       id="linearGradient4146"><stop
         style="stop-color:#000000;stop-opacity:1;"
         offset="0"
         id="stop4148" /><stop
         style="stop-color:#000000;stop-opacity:0;"
         offset="1"
         id="stop4150" /></linearGradient><radialGradient
       inkscape:collect="always"
       xlink:href="#linearGradient4146"
       id="radialGradient4152"
       cx="18"
       cy="18"
       fx="18"
       fy="18"
       r="18"
       gradientUnits="userSpaceOnUse" /></defs><sodipodi:namedview
     pagecolor="#ff02ff"
     bordercolor="#666666"
     borderopacity="1"
     objecttolerance="10"
     gridtolerance="10"
     guidetolerance="10"
     inkscape:pageopacity="0"
     inkscape:pageshadow="2"
     inkscape:window-width="1668"
     inkscape:window-height="879"
     id="namedview5"
     showgrid="false"
     inkscape:zoom="11.166395"
     inkscape:cx="2.49368"
     inkscape:cy="7.7272595"
     inkscape:window-x="65"
     inkscape:window-y="24"
     inkscape:window-maximized="0"
     inkscape:current-layer="Layer_1" /><ellipse
     style="opacity:1;fill:none;fill-opacity:1;fill-rule:nonzero;stroke:url(#radialGradient4152);stroke-width:8.82924175;stroke-linecap:round;stroke-linejoin:round;stroke-miterlimit:4;stroke-dasharray:none;stroke-opacity:1"
     id="path4158"
     cx="18"
     cy="18"
     rx="13.585379"
     ry="13.58538" /><path
     style="clip-rule:evenodd;fill:#ffffff;fill-rule:evenodd"
     d="m 18,8.7907737 c 5.079529,0 9.209227,4.1296983 9.209227,9.2092273 0,5.079529 -4.129698,9.209227 -9.209227,9.209227 -5.079529,0 -9.2092274,-4.129698 -9.2092274,-9.209227 0,-5.079529 4.1296984,-9.2092273 9.2092274,-9.2092273 z M 16.895306,2.0387169 c 0.774318,-0.051621 1.43507,-0.051621 2.209388,0 l 1.156316,3.3450557 c 0.743346,0.1342152 1.373125,0.2994031 2.085498,0.5575093 l 2.673979,-2.3126311 c 0.702049,0.3303758 1.269882,0.671076 1.92031,1.09437 l -0.671076,3.4792709 c 0.578158,0.4955638 1.032425,0.9498306 1.527988,1.5279884 l 3.479271,-0.671076 c 0.423294,0.6504275 0.75367,1.2182609 1.09437,1.9203099 l -2.312631,2.673979 c 0.258106,0.712373 0.423294,1.342152 0.557509,2.085498 l 3.345056,1.156316 c 0.05162,0.774318 0.05162,1.43507 0,2.209388 l -3.345056,1.156316 c -0.134215,0.743346 -0.299403,1.373125 -0.557509,2.085498 l 2.312631,2.673979 c -0.3407,0.702049 -0.671076,1.269882 -1.09437,1.92031 l -3.479271,-0.671076 c -0.495563,0.578158 -0.94983,1.032425 -1.527988,1.527988 l 0.671076,3.479271 c -0.650428,0.423294 -1.218261,0.763994 -1.92031,1.09437 L 22.346508,30.05872 c -0.712373,0.258106 -1.342152,0.423294 -2.085498,0.557509 l -1.156316,3.345056 c -0.774318,0.05162 -1.43507,0.05162 -2.209388,0 L 15.73899,30.616229 C 14.995644,30.482014 14.365865,30.316826 13.653492,30.05872 l -2.673979,2.312631 C 10.277464,32.040975 9.7096308,31.700275 9.059203,31.276981 L 9.7302789,27.79771 C 9.1521211,27.302147 8.6978543,26.84788 8.2022905,26.269722 L 4.7230196,26.940798 C 4.2997256,26.29037 3.9693497,25.722537 3.6286496,25.020488 L 5.9412807,22.346509 C 5.6831745,21.634136 5.5179866,21.004357 5.3837714,20.261011 L 2.0387157,19.104695 c -0.051621,-0.774318 -0.051621,-1.43507 0,-2.209388 L 5.3837714,15.738991 C 5.5179866,14.995645 5.6831745,14.365866 5.9412807,13.653493 L 3.6286496,10.979514 c 0.3407001,-0.702049 0.671076,-1.2698824 1.09437,-1.9203099 l 3.4792709,0.671076 C 8.6978543,9.1521223 9.1521211,8.6978555 9.7302789,8.2022917 L 9.059203,4.7230208 c 0.6504279,-0.423294 1.218261,-0.7639942 1.92031,-1.09437 l 2.673979,2.3126311 C 14.365865,5.6831757 14.995644,5.5179878 15.73899,5.3837726 l 1.156316,-3.3450557 z"
     id="path3"
     inkscape:connector-curvature="0" /></svg>