<?xml version="1.0" encoding="iso-8859-1"?>
<!-- Generator: Adobe Illustrator 17.0.0, SVG Export Plug-In . SVG Version: 6.00 Build 0)  -->
<!DOCTYPE svg PUBLIC "-//W3C//DTD SVG 1.1//EN" "http://www.w3.org/Graphics/SVG/1.1/DTD/svg11.dtd">
<svg version="1.1" id="Layer_1" xmlns="http://www.w3.org/2000/svg" xmlns:xlink="http://www.w3.org/1999/xlink" x="0px" y="0px"
	 width="36px" height="36px" viewBox="0 0 36 36" style="enable-background:new 0 0 36 36;" xml:space="preserve">
<path style="fill:#FFFFFF;" d="M30.1,34H5.9C4.301,34,3,32.699,3,31.1V6.9C3,5.301,4.301,4,5.9,4h24.2c1.6,0,2.9,1.301,2.9,2.9v24.2
	C33,32.699,31.699,34,30.1,34z M5.9,5C4.852,5,4,5.852,4,6.9v24.2C4,32.147,4.852,33,5.9,33h24.2c1.048,0,1.9-0.853,1.9-1.9V6.9
	C32,5.852,31.147,5,30.1,5H5.9z"/>
<rect x="5.5" y="6.5" style="fill-rule:evenodd;clip-rule:evenodd;fill:#FFFFFF;" width="9" height="9"/>
<rect x="15.5" y="16.5" style="fill-rule:evenodd;clip-rule:evenodd;fill:#FFFFFF;" width="15" height="15"/>
<rect x="15.5" y="9.5" style="fill-rule:evenodd;clip-rule:evenodd;fill:#FFFFFF;" width="6" height="6"/>
</svg>
