<?xml version="1.0" encoding="iso-8859-1"?>
<!-- Generator: Adobe Illustrator 17.0.0, SVG Export Plug-In . SVG Version: 6.00 Build 0)  -->
<!DOCTYPE svg PUBLIC "-//W3C//DTD SVG 1.1//EN" "http://www.w3.org/Graphics/SVG/1.1/DTD/svg11.dtd">
<svg version="1.1" id="Layer_1" xmlns="http://www.w3.org/2000/svg" xmlns:xlink="http://www.w3.org/1999/xlink" x="0px" y="0px"
	 width="36px" height="36px" viewBox="0 0 36 36" style="enable-background:new 0 0 36 36;" xml:space="preserve">
<path style="fill:#FFFFFF;" d="M31,14.17h-2V7.5H22.57v-2H30c0.553,0,1,0.448,1,1V14.17z"/>
<rect x="24.29" y="10.63" style="fill-rule:evenodd;clip-rule:evenodd;fill:#FFFFFF;" width="2.28" height="2.36"/>
<path style="fill:#FFFFFF;" d="M30,30.5H22.57v-2H29v-6.67h2v7.67C31,30.053,30.553,30.5,30,30.5z"/>
<rect x="24.29" y="23.6" style="fill-rule:evenodd;clip-rule:evenodd;fill:#FFFFFF;" width="2.28" height="2.36"/>
<path style="fill:#FFFFFF;" d="M7,14.17H5V6.5c0-0.552,0.448-1,1-1h7.43v2H7V14.17z"/>
<rect x="10" y="10.63" style="fill-rule:evenodd;clip-rule:evenodd;fill:#FFFFFF;" width="2.29" height="2.36"/>
<path style="fill:#FFFFFF;" d="M13.43,30.5H6c-0.552,0-1-0.447-1-1v-7.67h2v6.67h6.43V30.5z"/>
<rect x="10" y="23.6" style="fill-rule:evenodd;clip-rule:evenodd;fill:#FFFFFF;" width="2.29" height="2.36"/>
</svg>
