<?xml version="1.0" encoding="iso-8859-1"?>
<!-- Generator: Adobe Illustrator 17.0.0, SVG Export Plug-In . SVG Version: 6.00 Build 0)  -->
<!DOCTYPE svg PUBLIC "-//W3C//DTD SVG 1.1//EN" "http://www.w3.org/Graphics/SVG/1.1/DTD/svg11.dtd">
<svg version="1.1" id="Layer_1" xmlns="http://www.w3.org/2000/svg" xmlns:xlink="http://www.w3.org/1999/xlink" x="0px" y="0px"
	 width="36px" height="36px" viewBox="0 0 36 36" style="enable-background:new 0 0 36 36;" xml:space="preserve">
<path style="fill-rule:evenodd;clip-rule:evenodd;fill:#FFFFFF;" d="M18,9.08c4.92,0,8.92,4,8.92,8.92s-4,8.92-8.92,8.92
	s-8.92-4-8.92-8.92S13.08,9.08,18,9.08z M16.93,2.54c0.75-0.05,1.39-0.05,2.14,0l1.12,3.24c0.72,0.13,1.33,0.29,2.02,0.54l2.59-2.24
	c0.68,0.32,1.23,0.65,1.86,1.06l-0.65,3.37c0.56,0.48,1,0.92,1.48,1.48l3.37-0.65c0.41,0.63,0.73,1.18,1.06,1.86l-2.24,2.59
	c0.25,0.69,0.41,1.3,0.54,2.02l3.24,1.12c0.05,0.75,0.05,1.39,0,2.14l-3.24,1.12c-0.13,0.72-0.29,1.33-0.54,2.02l2.24,2.59
	c-0.33,0.68-0.65,1.23-1.06,1.86l-3.37-0.65c-0.48,0.56-0.92,1-1.48,1.48l0.65,3.37c-0.63,0.41-1.18,0.74-1.86,1.06l-2.59-2.24
	c-0.69,0.25-1.3,0.41-2.02,0.54l-1.12,3.24c-0.75,0.05-1.39,0.05-2.14,0l-1.12-3.24c-0.72-0.13-1.33-0.29-2.02-0.54l-2.59,2.24
	c-0.68-0.32-1.23-0.65-1.86-1.06l0.65-3.37c-0.56-0.48-1-0.92-1.48-1.48l-3.37,0.65c-0.41-0.63-0.73-1.18-1.06-1.86l2.24-2.59
	c-0.25-0.69-0.41-1.3-0.54-2.02l-3.24-1.12c-0.05-0.75-0.05-1.39,0-2.14l3.24-1.12c0.13-0.72,0.29-1.33,0.54-2.02L4.08,11.2
	c0.33-0.68,0.65-1.23,1.06-1.86l3.37,0.65c0.48-0.56,0.92-1,1.48-1.48L9.34,5.14c0.63-0.41,1.18-0.74,1.86-1.06l2.59,2.24
	c0.69-0.25,1.3-0.41,2.02-0.54L16.93,2.54z"/>
</svg>
