<?xml version="1.0" encoding="iso-8859-1"?>
<!-- Generator: Adobe Illustrator 17.0.0, SVG Export Plug-In . SVG Version: 6.00 Build 0)  -->
<!DOCTYPE svg PUBLIC "-//W3C//DTD SVG 1.1//EN" "http://www.w3.org/Graphics/SVG/1.1/DTD/svg11.dtd">
<svg version="1.1" id="Layer_1" xmlns="http://www.w3.org/2000/svg" xmlns:xlink="http://www.w3.org/1999/xlink" x="0px" y="0px"
	 width="36px" height="36px" viewBox="0 0 36 36" style="enable-background:new 0 0 36 36;" xml:space="preserve">
<path style="fill:#FFFFFF;" d="M28,34.9H6c-1.93,0-3.5-1.57-3.5-3.5v-26c0-1.93,1.57-3.5,3.5-3.5h22c1.93,0,3.5,1.57,3.5,3.5v26
	C31.5,33.33,29.93,34.9,28,34.9z M6,2.9c-1.378,0-2.5,1.122-2.5,2.5v26c0,1.379,1.122,2.5,2.5,2.5h22c1.379,0,2.5-1.121,2.5-2.5v-26
	c0-1.378-1.121-2.5-2.5-2.5H6z"/>
<path style="fill-rule:evenodd;clip-rule:evenodd;fill:#FFFFFF;" d="M26.76,0L10,16.2L9,23h7L33,6.2L26.76,0z M10.422,22.406
	L11,18.59l3.741,3.773L10.422,22.406z M25,4.4l2-2l4,4l-2,2L25,4.4z"/>
<rect x="6.5" y="26.4" style="fill:#FFFFFF;" width="19" height="1"/>
<rect x="6.5" y="29.4" style="fill:#FFFFFF;" width="19" height="1"/>
<rect x="6.5" y="23.4" style="fill:#FFFFFF;" width="8" height="1"/>
</svg>
