<?xml version="1.0" encoding="iso-8859-1"?>
<!-- Generator: Adobe Illustrator 17.0.0, SVG Export Plug-In . SVG Version: 6.00 Build 0)  -->
<!DOCTYPE svg PUBLIC "-//W3C//DTD SVG 1.1//EN" "http://www.w3.org/Graphics/SVG/1.1/DTD/svg11.dtd">
<svg version="1.1" id="Layer_1" xmlns="http://www.w3.org/2000/svg" xmlns:xlink="http://www.w3.org/1999/xlink" x="0px" y="0px"
	 width="36px" height="36px" viewBox="0 0 36 36" style="enable-background:new 0 0 36 36;" xml:space="preserve">
<g>
	<g>
		<path style="fill-rule:evenodd;clip-rule:evenodd;fill:#FFFFFF;" d="M24.049,13.24l-0.65,0.94c0.02,0.01,4.95,3.13,0.06,7.82
			l0.81,0.8C30.199,17.13,24.069,13.25,24.049,13.24z M25.719,10.95c0.01,0.01,3.72,2.04,4.18,6.64v0.03c0,0.02,0.2,5.83-4.18,7.79
			l-0.48-1.03c3.54-1.58,3.51-6.34,3.5-6.71c-0.4-3.99-3.58-5.73-3.59-5.74L25.719,10.95z M6.099,23.6V13.38h5.75l10.14-6.26v21.76
			l-9.8-5.61L6.099,23.6z"/>
	</g>
</g>
</svg>
