<?xml version="1.0" encoding="iso-8859-1"?>
<!-- Generator: Adobe Illustrator 17.0.0, SVG Export Plug-In . SVG Version: 6.00 Build 0)  -->
<!DOCTYPE svg PUBLIC "-//W3C//DTD SVG 1.1//EN" "http://www.w3.org/Graphics/SVG/1.1/DTD/svg11.dtd">
<svg version="1.1" id="Layer_1" xmlns="http://www.w3.org/2000/svg" xmlns:xlink="http://www.w3.org/1999/xlink" x="0px" y="0px"
	 width="36px" height="36px" viewBox="0 0 36 36" style="enable-background:new 0 0 36 36;" xml:space="preserve">
<path style="fill:#FFFFFF;" d="M17,1C7.611,1,0,8.611,0,18c0,9.389,7.611,17,17,17s17-7.611,17-17C34,8.611,26.389,1,17,1z
	 M17,32.403C9.046,32.403,2.597,25.954,2.597,18C2.597,10.046,9.046,3.597,17,3.597S31.403,10.046,31.403,18
	C31.403,25.954,24.954,32.403,17,32.403z"/>
<path style="fill-rule:evenodd;clip-rule:evenodd;fill:#FFFFFF;" d="M31.439,1L19.33,12.896L18.607,18h5.058L35.948,5.671L31.439,1z
	 M19.635,17.189l0.418-2.757l2.703,2.726L19.635,17.189z M30.168,4.179l1.445-1.445l2.89,2.89l-1.445,1.445L30.168,4.179z"/>
<rect x="16" y="5" style="fill-rule:evenodd;clip-rule:evenodd;fill:#FFFFFF;" width="1" height="14"/>
<rect x="4" y="18" style="fill-rule:evenodd;clip-rule:evenodd;fill:#FFFFFF;" width="13" height="1"/>
</svg>
