<?xml version="1.0" encoding="iso-8859-1"?><!DOCTYPE svg PUBLIC "-//W3C//DTD SVG 1.1//EN" "http://www.w3.org/Graphics/SVG/1.1/DTD/svg11.dtd"><svg version="1.1" id="Layer_1" xmlns="http://www.w3.org/2000/svg" xmlns:xlink="http://www.w3.org/1999/xlink" x="0px" y="0px" width="53.417px" height="36px" viewBox="0 0 53.417 36" style="enable-background:new 0 0 53.417 36;" xml:space="preserve"><path style="fill:#FFFFFF;" d="M47.157,33.875H7.137c-2.713,0-5.99-2.738-5.99-6.14V8.015c0-3.401,3.277-6.14,5.99-6.14h40.02c2.752,0,4.99,2.754,4.99,6.14v19.72C52.147,31.121,49.909,33.875,47.157,33.875z M7.137,2.875c-2.246,0-4.99,2.372-4.99,5.14v19.72c0,2.768,2.744,5.14,4.99,5.14h40.02c2.2,0,3.99-2.306,3.99-5.14V8.015c0-2.834-1.79-5.14-3.99-5.14H7.137z"/><g><path style="fill:#FFFFFF;" d="M15.613,17.098c0,3.25-1.975,4.973-4.384,4.973c-2.493,0-4.244-1.933-4.244-4.791c0-2.998,1.863-4.958,4.384-4.958C13.946,12.321,15.613,14.296,15.613,17.098z M8.287,17.252c0,2.018,1.092,3.824,3.011,3.824c1.933,0,3.026-1.779,3.026-3.922c0-1.877-0.98-3.838-3.012-3.838C9.296,13.316,8.287,15.179,8.287,17.252z"/><path style="fill:#FFFFFF;" d="M17.149,16.972c0-0.7-0.014-1.274-0.056-1.835h1.093l0.07,1.121h0.028c0.336-0.644,1.121-1.274,2.241-1.274c0.938,0,2.395,0.56,2.395,2.885v4.048h-1.232v-3.908c0-1.092-0.406-2.003-1.569-2.003c-0.813,0-1.443,0.574-1.653,1.261c-0.056,0.154-0.084,0.364-0.084,0.574v4.076h-1.233V16.972z"/></g><path style="fill-rule:evenodd;clip-rule:evenodd;fill:#FFFFFF;" d="M45.823,32c1.378,0,4.157-2.381,4.157-4.39V7.89c0-2.009-2.778-3.89-4.157-3.89H26.98v28H45.823z"/><g><path d="M37.613,17.098c0,3.25-1.975,4.973-4.385,4.973c-2.492,0-4.244-1.933-4.244-4.791c0-2.998,1.863-4.958,4.385-4.958C35.946,12.321,37.613,14.296,37.613,17.098z M30.287,17.252c0,2.018,1.093,3.824,3.012,3.824c1.934,0,3.025-1.779,3.025-3.922c0-1.877-0.98-3.838-3.012-3.838C31.296,13.316,30.287,15.179,30.287,17.252z"/><path d="M43.56,21.916v-5.841h-2.844v5.841h-1.219v-5.841h-0.951v-0.938h0.951v-0.224c0-0.953,0.225-1.779,0.757-2.311c0.393-0.392,0.952-0.63,1.709-0.63c0.393,0,0.757,0.126,0.967,0.238l-0.253,0.91c-0.182-0.084-0.447-0.168-0.728-0.168c-0.967,0-1.233,0.827-1.233,1.891v0.294h2.844v-0.322c0-0.952,0.225-1.821,0.799-2.367c0.463-0.448,1.078-0.63,1.639-0.63c0.448,0,0.813,0.098,1.051,0.196l-0.154,0.953c-0.195-0.084-0.434-0.154-0.799-0.154c-1.036,0-1.316,0.925-1.316,1.961v0.364h1.639v0.938h-1.625v5.841H43.56z"/></g></svg>
