<svg xmlns="http://www.w3.org/2000/svg" viewBox="0 0 52 52" enable-background="new 0 0 52 52"><filter height="56" width="55" y="424" x="19" filterUnits="userSpaceOnUse" id="a"><feOffset dx=".5" dy=".866" in="SourceAlpha"/><feGaussianBlur stdDeviation="1.414" result="blurOut"/><feFlood result="floodOut" flood-color="#000"/><feComposite in2="blurOut" in="floodOut" operator="atop"/><feComponentTransfer><feFuncA type="linear" slope=".32"/></feComponentTransfer><feMerge><feMergeNode/><feMergeNode in="SourceGraphic"/></feMerge></filter><path fill="#FF9A31" d="M26 0c14.4 0 26 11.6 26 26S40.4 52 26 52 0 40.4 0 26 11.6 0 26 0z" filter="url(#a)"/><linearGradient id="b" gradientUnits="userSpaceOnUse" x1="-265.288" y1="386.942" x2="-265.288" y2="385.942" gradientTransform="matrix(52 0 0 52 13821 -20069)"><stop offset="0" stop-color="#FF8525"/><stop offset="1" stop-color="#FFA747"/></linearGradient><path fill="url(#b)" d="M26 0c14.4 0 26 11.6 26 26S40.4 52 26 52 0 40.4 0 26 11.6 0 26 0z"/><path fill="#fff" d="M26 17.5c0 1.5 1.1 2.5 2.5 2.5s2.5-1 2.5-2.5-1.1-2.5-2.5-2.5-2.5 1-2.5 2.5zm-4 7.7c0 .3.1.9.1 1.3l1-1.4.8-1c.4-.5.8-.8 1-.7.2.1.3.4.3.7l-2.9 11.1c-.3 1.2.2 2.4 1.1 2.8h.7c2.2 0 3.7-1.9 5-4.2 0-.3-.1-.9-.1-1.3l-1 1.4-.8 1c-.4.5-.8.8-1 .7s-.3-.3-.3-.6l2.9-11.2c.3-1.2-.2-2.4-1.1-2.8H27c-2.2 0-3.7 1.9-5 4.2z"/></svg>